<svg xmlns="http://www.w3.org/2000/svg" viewBox="0 0 400 640">
  <defs>
    <radialGradient id="bg" cx="50%" cy="40%" r="70%">
      <stop offset="0%" stop-color="#4c1d95"/>
      <stop offset="100%" stop-color="#312e81"/>
    </radialGradient>
    <pattern id="stars" width="40" height="40" patternUnits="userSpaceOnUse">
      <circle cx="2" cy="2" r="1.1" fill="rgba(255,255,255,0.35)"/>
      <circle cx="22" cy="10" r="1.1" fill="rgba(255,255,255,0.28)"/>
      <circle cx="30" cy="28" r="1.2" fill="rgba(255,255,255,0.32)"/>
      <circle cx="12" cy="32" r="1.0" fill="rgba(255,255,255,0.25)"/>
    </pattern>
    <linearGradient id="border" x1="0" y1="0" x2="1" y2="1">
      <stop offset="0%" stop-color="#e7c77b" />
      <stop offset="100%" stop-color="#b8954d" />
    </linearGradient>
  </defs>

  <!-- Outer rounded card -->
  <rect width="100%" height="100%" rx="24" ry="24" fill="url(#bg)"/>
  <rect x="10" y="10" width="380" height="620" rx="20" ry="20" fill="none" stroke="url(#border)" stroke-width="2.5"/>
  <rect x="18" y="18" width="364" height="604" rx="18" ry="18" fill="url(#stars)" opacity="0.35"/>
  
  <!-- Centerpiece -->
  <g transform="translate(200,320)">
  <circle r="88" fill="none" stroke="#1C1C1C" stroke-width="2"/>
  <path d="M-24 -28 C 0 -48, 28 -40, 36 -16 C 8 -18, -4 -2, -24 8 C -30 -4, -30 -16, -24 -28 Z"
        fill="#1C1C1C" />
  <g fill="none" stroke="#1C1C1C" stroke-width="1.5" opacity="0.8">
    <path d="M-70,0 q 35,-14 70,0 q 35,14 70,0" />
    <path d="M-60,16 q 30,-12 60,0 q 30,12 60,0" opacity="0.7"/>
  </g>
</g>

  <!-- Caption (for reference, hidden in UI) -->
  <title>Tarot Back - Lunar Wave</title>
</svg>
