<svg xmlns="http://www.w3.org/2000/svg" viewBox="0 0 400 640">
  <defs>
    <radialGradient id="bg" cx="50%" cy="40%" r="70%">
      <stop offset="0%" stop-color="#4c1d95"/>
      <stop offset="100%" stop-color="#312e81"/>
    </radialGradient>
    <pattern id="stars" width="40" height="40" patternUnits="userSpaceOnUse">
      <circle cx="2" cy="2" r="1.1" fill="rgba(255,255,255,0.35)"/>
      <circle cx="22" cy="10" r="1.1" fill="rgba(255,255,255,0.28)"/>
      <circle cx="30" cy="28" r="1.2" fill="rgba(255,255,255,0.32)"/>
      <circle cx="12" cy="32" r="1.0" fill="rgba(255,255,255,0.25)"/>
    </pattern>
    <linearGradient id="border" x1="0" y1="0" x2="1" y2="1">
      <stop offset="0%" stop-color="#e7c77b" />
      <stop offset="100%" stop-color="#b8954d" />
    </linearGradient>
  </defs>

  <rect width="100%" height="100%" rx="24" ry="24" fill="url(#bg)"/>
  <rect x="10" y="10" width="380" height="620" rx="20" ry="20" fill="none" stroke="url(#border)" stroke-width="2.5"/>
  <rect x="18" y="18" width="364" height="604" rx="18" ry="18" fill="url(#stars)" opacity="0.35"/>

  <!-- Centerpiece: Compass Rose -->
  <g transform="translate(200,320)" fill="#e7c77b" stroke="#e7c77b" stroke-width="1.3" stroke-linecap="round" stroke-linejoin="round">
    <circle r="62" fill="none" opacity="0.55"/>
    <!-- Four main points -->
    <path d="M0,-64 L6,-10 L0,0 L-6,-10 Z"/>
    <path d="M64,0 L10,6 L0,0 L10,-6 Z"/>
    <path d="M0,64 L-6,10 L0,0 L6,10 Z"/>
    <path d="M-64,0 L-10,-6 L0,0 L-10,6 Z"/>
    <!-- Minor ticks -->
    <g opacity="0.8">
      <line x1="0" y1="-92" x2="0" y2="-70"/>
      <line x1="0" y1="92" x2="0" y2="70"/>
      <line x1="-92" y1="0" x2="-70" y2="0"/>
      <line x1="92" y1="0" x2="70" y2="0"/>
      <line x1="65" y1="-65" x2="48" y2="-48"/>
      <line x1="65" y1="65" x2="48" y2="48"/>
      <line x1="-65" y1="65" x2="-48" y2="48"/>
      <line x1="-65" y1="-65" x2="-48" y2="-48"/>
    </g>
    <circle r="5"/>
  </g>

  <title>Tarot Back - Compass Deco</title>
</svg>

