<svg xmlns="http://www.w3.org/2000/svg" viewBox="0 0 400 640">
  <defs>
    <linearGradient id="paper" x1="0" y1="0" x2="0" y2="1">
      <stop offset="0%" stop-color="#ffffff"/>
      <stop offset="100%" stop-color="#f6f6f8"/>
    </linearGradient>
    <linearGradient id="border" x1="0" y1="0" x2="1" y2="1">
      <stop offset="0%" stop-color="#e7c77b"/>
      <stop offset="100%" stop-color="#b8954d"/>
    </linearGradient>
  </defs>

  <rect width="100%" height="100%" rx="24" ry="24" fill="url(#paper)"/>
  <rect x="10" y="10" width="380" height="620" rx="20" ry="20" fill="none" stroke="url(#border)" stroke-width="2.5"/>
  <rect x="18" y="18" width="364" height="604" rx="18" ry="18" fill="none" stroke="url(#border)" stroke-opacity="0.45" stroke-width="1.5"/>

  <!-- Six of Cups motif: six cups with simple flowers (nostalgia) -->
  <g transform="translate(200,320)" stroke="#dabb67" stroke-width="1.6" fill="none" stroke-linecap="round" stroke-linejoin="round" opacity="0.95">
    <!-- grid 3x2 -->
    <g transform="translate(-48,-20)">
      <path d="M-12,-12 h24 c0,12 -10,22 -12,22 c-2,0 -12,-10 -12,-22z"/>
      <path d="M0,10 v12"/>
      <path d="M-10,26 h20"/>
      <path d="M0,-18 v6"/>
      <path d="M0,-24 l6,6 M0,-24 l-6,6"/>
    </g>
    <g transform="translate(0,-20)">
      <path d="M-12,-12 h24 c0,12 -10,22 -12,22 c-2,0 -12,-10 -12,-22z"/>
      <path d="M0,10 v12"/>
      <path d="M-10,26 h20"/>
      <path d="M0,-18 v6"/>
      <path d="M0,-24 l6,6 M0,-24 l-6,6"/>
    </g>
    <g transform="translate(48,-20)">
      <path d="M-12,-12 h24 c0,12 -10,22 -12,22 c-2,0 -12,-10 -12,-22z"/>
      <path d="M0,10 v12"/>
      <path d="M-10,26 h20"/>
      <path d="M0,-18 v6"/>
      <path d="M0,-24 l6,6 M0,-24 l-6,6"/>
    </g>
    <g transform="translate(-48,24)">
      <path d="M-12,-12 h24 c0,12 -10,22 -12,22 c-2,0 -12,-10 -12,-22z"/>
      <path d="M0,10 v12"/>
      <path d="M-10,26 h20"/>
      <path d="M0,-18 v6"/>
      <path d="M0,-24 l6,6 M0,-24 l-6,6"/>
    </g>
    <g transform="translate(0,24)">
      <path d="M-12,-12 h24 c0,12 -10,22 -12,22 c-2,0 -12,-10 -12,-22z"/>
      <path d="M0,10 v12"/>
      <path d="M-10,26 h20"/>
      <path d="M0,-18 v6"/>
      <path d="M0,-24 l6,6 M0,-24 l-6,6"/>
    </g>
    <g transform="translate(48,24)">
      <path d="M-12,-12 h24 c0,12 -10,22 -12,22 c-2,0 -12,-10 -12,-22z"/>
      <path d="M0,10 v12"/>
      <path d="M-10,26 h20"/>
      <path d="M0,-18 v6"/>
      <path d="M0,-24 l6,6 M0,-24 l-6,6"/>
    </g>
    
    <path d="M-120,110 H120" opacity="0.7"/>
  </g>

  <title>Tarot Front - Six of Cups</title>
</svg>


