<svg xmlns="http://www.w3.org/2000/svg" viewBox="0 0 400 640">
  <defs>
    <linearGradient id="paper" x1="0" y1="0" x2="0" y2="1">
      <stop offset="0%" stop-color="#ffffff"/>
      <stop offset="100%" stop-color="#f6f6f8"/>
    </linearGradient>
    <linearGradient id="border" x1="0" y1="0" x2="1" y2="1">
      <stop offset="0%" stop-color="#e7c77b"/>
      <stop offset="100%" stop-color="#b8954d"/>
    </linearGradient>
  </defs>

  <rect width="100%" height="100%" rx="24" ry="24" fill="url(#paper)"/>
  <rect x="10" y="10" width="380" height="620" rx="20" ry="20" fill="none" stroke="url(#border)" stroke-width="2.5"/>
  <rect x="18" y="18" width="364" height="604" rx="18" ry="18" fill="none" stroke="url(#border)" stroke-opacity="0.45" stroke-width="1.5"/>

  <!-- Ten of Swords motif: ten swords radiating over horizon (dawn hint) -->
  <g transform="translate(200,320)" stroke="#dabb67" stroke-width="1.5" fill="none" stroke-linecap="round" stroke-linejoin="round" opacity="0.95">
    <!-- horizon -->
    <path d="M-120,40 h240"/>
    <!-- rising sun hint -->
    <circle cx="0" cy="40" r="12"/>
    
    <!-- ten radiating swords -->
    <g opacity="0.95">
      <path d="M0,-80 v100"/>
      <path d="M-18,-74 l18,94"/>
      <path d="M18,-74 l-18,94"/>
      <path d="M-36,-60 l36,80"/>
      <path d="M36,-60 l-36,80"/>
      <path d="M-54,-40 l54,60"/>
      <path d="M54,-40 l-54,60"/>
      <path d="M-72,-16 l72,36"/>
      <path d="M72,-16 l-72,36"/>
      <path d="M-90,10 l90,10"/>
    </g>
  </g>

  <title>Tarot Front - Ten of Swords</title>
</svg>


