<svg xmlns="http://www.w3.org/2000/svg" viewBox="0 0 400 640">
  <defs>
    <linearGradient id="paper" x1="0" y1="0" x2="0" y2="1">
      <stop offset="0%" stop-color="#ffffff"/>
      <stop offset="100%" stop-color="#f6f6f8"/>
    </linearGradient>
    <linearGradient id="border" x1="0" y1="0" x2="1" y2="1">
      <stop offset="0%" stop-color="#e7c77b"/>
      <stop offset="100%" stop-color="#b8954d"/>
    </linearGradient>
  </defs>

  <rect width="100%" height="100%" rx="24" ry="24" fill="url(#paper)"/>
  <rect x="10" y="10" width="380" height="620" rx="20" ry="20" fill="none" stroke="url(#border)" stroke-width="2.5"/>
  <rect x="18" y="18" width="364" height="604" rx="18" ry="18" fill="none" stroke="url(#border)" stroke-opacity="0.45" stroke-width="1.5"/>

  <!-- Ten of Pentacles motif: archway and ten coins pattern (legacy) -->
  <g transform="translate(200,320)" stroke="#dabb67" stroke-width="1.8" fill="none" stroke-linecap="round" stroke-linejoin="round" opacity="0.95">
    <path d="M-100,40 C-100,-60, 100,-60, 100,40"/>
    <!-- ten coins grid 5x2 -->
    <g>
      <circle cx="-80" cy="-10" r="10"/><path d="M-80,-18 L-78,-6 L-86,-14 L-74,-14 L-82,-6 Z"/>
      <circle cx="-50" cy="-10" r="10"/><path d="M-50,-18 L-48,-6 L-56,-14 L-44,-14 L-52,-6 Z"/>
      <circle cx="-20" cy="-10" r="10"/><path d="M-20,-18 L-18,-6 L-26,-14 L-14,-14 L-22,-6 Z"/>
      <circle cx="10" cy="-10" r="10"/><path d="M10,-18 L12,-6 L4,-14 L16,-14 L8,-6 Z"/>
      <circle cx="40" cy="-10" r="10"/><path d="M40,-18 L42,-6 L34,-14 L46,-14 L38,-6 Z"/>
      <circle cx="-80" cy="20" r="10"/><path d="M-80,12 L-78,24 L-86,16 L-74,16 L-82,24 Z"/>
      <circle cx="-50" cy="20" r="10"/><path d="M-50,12 L-48,24 L-56,16 L-44,16 L-52,24 Z"/>
      <circle cx="-20" cy="20" r="10"/><path d="M-20,12 L-18,24 L-26,16 L-14,16 L-22,24 Z"/>
      <circle cx="10" cy="20" r="10"/><path d="M10,12 L12,24 L4,16 L16,16 L8,24 Z"/>
      <circle cx="40" cy="20" r="10"/><path d="M40,12 L42,24 L34,16 L46,16 L38,24 Z"/>
    </g>
  </g>

  <title>Tarot Front - Ten of Pentacles</title>
</svg>


