<svg xmlns="http://www.w3.org/2000/svg" viewBox="0 0 400 640">
  <defs>
    <linearGradient id="paper" x1="0" y1="0" x2="0" y2="1">
      <stop offset="0%" stop-color="#ffffff"/>
      <stop offset="100%" stop-color="#f6f6f8"/>
    </linearGradient>
    <linearGradient id="border" x1="0" y1="0" x2="1" y2="1">
      <stop offset="0%" stop-color="#e7c77b"/>
      <stop offset="100%" stop-color="#b8954d"/>
    </linearGradient>
  </defs>

  <rect width="100%" height="100%" rx="24" ry="24" fill="url(#paper)"/>
  <rect x="10" y="10" width="380" height="620" rx="20" ry="20" fill="none" stroke="url(#border)" stroke-width="2.5"/>
  <rect x="18" y="18" width="364" height="604" rx="18" ry="18" fill="none" stroke="url(#border)" stroke-opacity="0.45" stroke-width="1.5"/>

  <!-- The Hanged Man motif: T-pole, inverted figure, halo, calm water -->
  <g transform="translate(200,320)" stroke="#dabb67" stroke-width="1.6" fill="none" stroke-linecap="round" stroke-linejoin="round" opacity="0.95">
    <!-- T-shaped tree/pole -->
    <path d="M-90,-130 h180"/>
    <path d="M0,-130 v210"/>

    <!-- rope -->
    <path d="M0,-130 v24"/>

    <!-- inverted figure -->
    <!-- head with halo -->
    <circle cx="0" cy="-90" r="10" fill="#dabb67"/>
    <circle cx="0" cy="-90" r="16"/>
    <!-- body -->
    <path d="M0,-80 v70"/>
    <!-- arms relaxed -->
    <path d="M-18,-52 c12,8 24,8 36,0"/>
    <!-- legs crossed -->
    <path d="M-10,-12 l20,24"/>
    <path d="M10,-12 l-20,24"/>

    <!-- calm water/horizon below -->
    <g opacity="0.8">
      <path d="M-120,110 c40,-6 60,-6 100,0 c40,6 60,6 100,0"/>
      <path d="M-120,120 H120"/>
    </g>

    <!-- subtle runes/perspective lines -->
    <g opacity="0.45">
      <path d="M-60,-130 v50"/>
      <path d="M60,-130 v50"/>
    </g>
  </g>

  <title>Tarot Front - The Hanged Man</title>
</svg>


