<svg xmlns="http://www.w3.org/2000/svg" viewBox="0 0 400 640">
  <defs>
    <linearGradient id="paper" x1="0" y1="0" x2="0" y2="1">
      <stop offset="0%" stop-color="#ffffff"/>
      <stop offset="100%" stop-color="#f6f6f8"/>
    </linearGradient>
    <linearGradient id="border" x1="0" y1="0" x2="1" y2="1">
      <stop offset="0%" stop-color="#e7c77b"/>
      <stop offset="100%" stop-color="#b8954d"/>
    </linearGradient>
  </defs>

  <rect width="100%" height="100%" rx="24" ry="24" fill="url(#paper)"/>
  <rect x="10" y="10" width="380" height="620" rx="20" ry="20" fill="none" stroke="url(#border)" stroke-width="2.5"/>
  <rect x="18" y="18" width="364" height="604" rx="18" ry="18" fill="none" stroke="url(#border)" stroke-opacity="0.45" stroke-width="1.5"/>

  <!-- Seven of Pentacles motif: vine with seven coins (assessment) -->
  <g transform="translate(200,320)" stroke="#dabb67" stroke-width="1.8" fill="none" stroke-linecap="round" stroke-linejoin="round" opacity="0.95">
    <path d="M-60,60 C-20,20, 20,-20, 60,-60"/>
    <circle cx="-48" cy="48" r="10"/>
    <path d="M-48,40 L-46,52 L-54,44 L-42,44 L-50,52 Z"/>
    <circle cx="-26" cy="26" r="10"/>
    <path d="M-26,18 L-24,30 L-32,22 L-20,22 L-28,30 Z"/>
    <circle cx="-4" cy="4" r="10"/>
    <path d="M-4,-4 L-2,8 L-10,0 L2,0 L-6,8 Z"/>
    <circle cx="18" cy="-18" r="10"/>
    <path d="M18,-26 L20,-14 L12,-22 L24,-22 L16,-14 Z"/>
    <circle cx="40" cy="-40" r="10"/>
    <path d="M40,-48 L42,-36 L34,-44 L46,-44 L38,-36 Z"/>
    <circle cx="-8" cy="40" r="10"/>
    <path d="M-8,32 L-6,44 L-14,36 L-2,36 L-10,44 Z"/>
    <circle cx="26" cy="-2" r="10"/>
    <path d="M26,-10 L28,2 L20,-6 L32,-6 L24,2 Z"/>
  </g>

  <title>Tarot Front - Seven of Pentacles</title>
</svg>


