<svg xmlns="http://www.w3.org/2000/svg" viewBox="0 0 400 640">
  <defs>
    <linearGradient id="paper" x1="0" y1="0" x2="0" y2="1">
      <stop offset="0%" stop-color="#ffffff"/>
      <stop offset="100%" stop-color="#f6f6f8"/>
    </linearGradient>
    <linearGradient id="border" x1="0" y1="0" x2="1" y2="1">
      <stop offset="0%" stop-color="#e7c77b"/>
      <stop offset="100%" stop-color="#b8954d"/>
    </linearGradient>
  </defs>

  <rect width="100%" height="100%" rx="24" ry="24" fill="url(#paper)"/>
  <rect x="10" y="10" width="380" height="620" rx="20" ry="20" fill="none" stroke="url(#border)" stroke-width="2.5"/>
  <rect x="18" y="18" width="364" height="604" rx="18" ry="18" fill="none" stroke="url(#border)" stroke-opacity="0.45" stroke-width="1.5"/>

  <!-- Four of Pentacles motif: figure holding coin, two under feet, one crown -->
  <g transform="translate(200,320)" stroke="#dabb67" stroke-width="1.8" fill="none" stroke-linecap="round" stroke-linejoin="round" opacity="0.95">
    <!-- head/crown -->
    <circle cx="0" cy="-86" r="10"/>
    <path d="M-16,-96 h32 l-6,10 -8,-6 -8,6 -8,-6 -8,6 z"/>
    <!-- held coin -->
    <circle cx="0" cy="-54" r="14"/>
    <path d="M0,-66 L4,-50 L-12,-58 L12,-58 L-4,-50 Z"/>
    <!-- under feet coins -->
    <circle cx="-36" cy="30" r="12"/>
    <path d="M-36,20 L-32,34 L-44,26 L-28,26 L-40,34 Z"/>
    <circle cx="36" cy="30" r="12"/>
    <path d="M36,20 L40,34 L28,26 L44,26 L32,34 Z"/>
  </g>

  <title>Tarot Front - Four of Pentacles</title>
</svg>


