<svg xmlns="http://www.w3.org/2000/svg" viewBox="0 0 400 640">
  <defs>
    <linearGradient id="paper" x1="0" y1="0" x2="0" y2="1">
      <stop offset="0%" stop-color="#ffffff"/>
      <stop offset="100%" stop-color="#f6f6f8"/>
    </linearGradient>
    <linearGradient id="border" x1="0" y1="0" x2="1" y2="1">
      <stop offset="0%" stop-color="#e7c77b"/>
      <stop offset="100%" stop-color="#b8954d"/>
    </linearGradient>
  </defs>

  <rect width="100%" height="100%" rx="24" ry="24" fill="url(#paper)"/>
  <rect x="10" y="10" width="380" height="620" rx="20" ry="20" fill="none" stroke="url(#border)" stroke-width="2.5"/>
  <rect x="18" y="18" width="364" height="604" rx="18" ry="18" fill="none" stroke="url(#border)" stroke-opacity="0.45" stroke-width="1.5"/>

  <!-- Three of Cups motif: three raised chalices, garland above -->
  <g transform="translate(200,320)" stroke="#dabb67" stroke-width="1.6" fill="none" stroke-linecap="round" stroke-linejoin="round" opacity="0.95">
    <!-- garland -->
    <path d="M-70,-90 c40,30 100,30 140,0"/>
    
    <!-- cups -->
    <g transform="translate(-48,0)">
      <path d="M-16,-12 h32 c0,14 -12,26 -16,26 c-4,0 -16,-12 -16,-26z"/>
      <path d="M0,14 v16"/>
      <path d="M-10,36 h20"/>
    </g>
    <g transform="translate(0,-8)">
      <path d="M-16,-12 h32 c0,14 -12,26 -16,26 c-4,0 -16,-12 -16,-26z"/>
      <path d="M0,14 v16"/>
      <path d="M-10,36 h20"/>
    </g>
    <g transform="translate(48,0)">
      <path d="M-16,-12 h32 c0,14 -12,26 -16,26 c-4,0 -16,-12 -16,-26z"/>
      <path d="M0,14 v16"/>
      <path d="M-10,36 h20"/>
    </g>
    
    <!-- ground line -->
    <path d="M-120,110 H120" opacity="0.7"/>
  </g>

  <title>Tarot Front - Three of Cups</title>
</svg>


