<svg xmlns="http://www.w3.org/2000/svg" viewBox="0 0 400 640">
  <defs>
    <linearGradient id="paper" x1="0" y1="0" x2="0" y2="1">
      <stop offset="0%" stop-color="#ffffff"/>
      <stop offset="100%" stop-color="#f6f6f8"/>
    </linearGradient>
    <linearGradient id="border" x1="0" y1="0" x2="1" y2="1">
      <stop offset="0%" stop-color="#e7c77b"/>
      <stop offset="100%" stop-color="#b8954d"/>
    </linearGradient>
  </defs>

  <rect width="100%" height="100%" rx="24" ry="24" fill="url(#paper)"/>
  <rect x="10" y="10" width="380" height="620" rx="20" ry="20" fill="none" stroke="url(#border)" stroke-width="2.5"/>
  <rect x="18" y="18" width="364" height="604" rx="18" ry="18" fill="none" stroke="url(#border)" stroke-opacity="0.45" stroke-width="1.5"/>

  <!-- Two of Cups motif: two chalices with caduceus above -->
  <g transform="translate(200,320)" stroke="#dabb67" stroke-width="1.6" fill="none" stroke-linecap="round" stroke-linejoin="round" opacity="0.95">
    <!-- caduceus -->
    <path d="M0,-130 v40"/>
    <path d="M-18,-100 c18,-10 36,-10 54,0"/>
    <path d="M-10,-110 c6,8 6,16 0,24"/>
    <path d="M10,-110 c-6,8 -6,16 0,24"/>
    
    <!-- left cup -->
    <g transform="translate(-36,0)">
      <path d="M-24,-20 h48 c0,18 -18,32 -24,32 c-6,0 -24,-14 -24,-32z"/>
      <path d="M0,12 v20"/>
      <path d="M-12,40 h24"/>
    </g>
    
    <!-- right cup -->
    <g transform="translate(36,0)">
      <path d="M-24,-20 h48 c0,18 -18,32 -24,32 c-6,0 -24,-14 -24,-32z"/>
      <path d="M0,12 v20"/>
      <path d="M-12,40 h24"/>
    </g>
    
    <!-- ground line -->
    <path d="M-120,110 H120" opacity="0.7"/>
  </g>

  <title>Tarot Front - Two of Cups</title>
</svg>


