<svg xmlns="http://www.w3.org/2000/svg" viewBox="0 0 400 640">
  <defs>
    <linearGradient id="paper" x1="0" y1="0" x2="0" y2="1">
      <stop offset="0%" stop-color="#ffffff"/>
      <stop offset="100%" stop-color="#f6f6f8"/>
    </linearGradient>
    <linearGradient id="border" x1="0" y1="0" x2="1" y2="1">
      <stop offset="0%" stop-color="#e7c77b"/>
      <stop offset="100%" stop-color="#b8954d"/>
    </linearGradient>
  </defs>

  <rect width="100%" height="100%" rx="24" ry="24" fill="url(#paper)"/>
  <rect x="10" y="10" width="380" height="620" rx="20" ry="20" fill="none" stroke="url(#border)" stroke-width="2.5"/>
  <rect x="18" y="18" width="364" height="604" rx="18" ry="18" fill="none" stroke="url(#border)" stroke-opacity="0.45" stroke-width="1.5"/>

  <!-- Seven of Wands motif: defensive stance on higher ground with seven staves -->
  <g transform="translate(200,320)" stroke="#dabb67" stroke-width="1.8" fill="none" stroke-linecap="round" stroke-linejoin="round" opacity="0.95">
    <!-- higher ground -->
    <path d="M-120,40 c60,-30 120,-30 240,0"/>
    <!-- staves -->
    <path d="M-80,60 l160,-120"/>
    <path d="M-60,70 l120,-140"/>
    <path d="M-40,80 l80,-140"/>
    <path d="M-20,84 l40,-144"/>
    <path d="M0,86 v-160"/>
    <path d="M20,84 l-40,-144"/>
    <path d="M40,80 l-80,-140"/>
  </g>

  <title>Tarot Front - Seven of Wands</title>
</svg>


