<svg xmlns="http://www.w3.org/2000/svg" viewBox="0 0 400 640">
  <defs>
    <linearGradient id="paper" x1="0" y1="0" x2="0" y2="1">
      <stop offset="0%" stop-color="#ffffff"/>
      <stop offset="100%" stop-color="#f6f6f8"/>
    </linearGradient>
    <linearGradient id="border" x1="0" y1="0" x2="1" y2="1">
      <stop offset="0%" stop-color="#e7c77b"/>
      <stop offset="100%" stop-color="#b8954d"/>
    </linearGradient>
  </defs>

  <rect width="100%" height="100%" rx="24" ry="24" fill="url(#paper)"/>
  <rect x="10" y="10" width="380" height="620" rx="20" ry="20" fill="none" stroke="url(#border)" stroke-width="2.5"/>
  <rect x="18" y="18" width="364" height="604" rx="18" ry="18" fill="none" stroke="url(#border)" stroke-opacity="0.45" stroke-width="1.5"/>

  <!-- The Sun motif: radiant sun, child on horse, sunflowers, wall -->
  <g transform="translate(200,320)" stroke="#dabb67" stroke-width="1.6" fill="none" stroke-linecap="round" stroke-linejoin="round" opacity="0.95">
    <!-- radiant sun -->
    <circle cx="0" cy="-160" r="22" fill="#dabb67"/>
    <g opacity="0.9">
      <line x1="0" y1="-196" x2="0" y2="-184"/>
      <line x1="0" y1="-136" x2="0" y2="-148"/>
      <line x1="-22" y1="-160" x2="-36" y2="-160"/>
      <line x1="22" y1="-160" x2="36" y2="-160"/>
      <line x1="16" y1="-182" x2="26" y2="-192"/>
      <line x1="-16" y1="-182" x2="-26" y2="-192"/>
      <line x1="16" y1="-138" x2="26" y2="-128"/>
      <line x1="-16" y1="-138" x2="-26" y2="-128"/>
    </g>

    <!-- child on horse (simplified forms) -->
    <circle cx="-8" cy="-78" r="10" fill="#dabb67"/>
    <path d="M-8,-68 v24"/>
    <path d="M-24,-54 c10,6 20,6 32,0"/>
    <!-- horse head/body -->
    <path d="M-40,-30 c30,-16 68,-16 98,0"/>
    <path d="M-40,-30 c8,16 18,24 28,26"/>
    <path d="M58,-30 c-8,16 -18,24 -28,26"/>

    <!-- wall behind -->
    <g opacity="0.85">
      <path d="M-120,30 h240"/>
      <path d="M-120,40 h240"/>
    </g>

    <!-- sunflowers -->
    <g opacity="0.9">
      <circle cx="-70" cy="70" r="10"/>
      <path d="M-70,60 v-8"/>
      <path d="M-80,70 h-8"/>
      <path d="M-60,70 h8"/>
      <path d="M-76,64 l-6,-6"/>
      <path d="M-64,64 l6,-6"/>
      
      <circle cx="70" cy="78" r="10"/>
      <path d="M70,68 v-8"/>
      <path d="M60,78 h-8"/>
      <path d="M80,78 h8"/>
      <path d="M64,72 l-6,-6"/>
      <path d="M76,72 l6,-6"/>
    </g>

    <!-- ground line -->
    <path d="M-120,110 H120" opacity="0.7"/>
  </g>

  <title>Tarot Front - The Sun</title>
</svg>


