<svg xmlns="http://www.w3.org/2000/svg" viewBox="0 0 400 640">
  <defs>
    <linearGradient id="paper" x1="0" y1="0" x2="0" y2="1">
      <stop offset="0%" stop-color="#ffffff"/>
      <stop offset="100%" stop-color="#f6f6f8"/>
    </linearGradient>
    <linearGradient id="border" x1="0" y1="0" x2="1" y2="1">
      <stop offset="0%" stop-color="#e7c77b"/>
      <stop offset="100%" stop-color="#b8954d"/>
    </linearGradient>
  </defs>

  <rect width="100%" height="100%" rx="24" ry="24" fill="url(#paper)"/>
  <rect x="10" y="10" width="380" height="620" rx="20" ry="20" fill="none" stroke="url(#border)" stroke-width="2.5"/>
  <rect x="18" y="18" width="364" height="604" rx="18" ry="18" fill="none" stroke="url(#border)" stroke-opacity="0.45" stroke-width="1.5"/>

  <!-- Nine of Pentacles motif: vineyard with nine coins (luxury/independence) -->
  <g transform="translate(200,320)" stroke="#dabb67" stroke-width="1.8" fill="none" stroke-linecap="round" stroke-linejoin="round" opacity="0.95">
    <path d="M-100,60 c40,-20 80,-20 120,0 c40,20 80,20 120,0"/>
    <!-- coins cluster -->
    <g>
      <circle cx="-60" cy="-10" r="10"/><path d="M-60,-18 L-58,-6 L-66,-14 L-54,-14 L-62,-6 Z"/>
      <circle cx="-30" cy="-20" r="10"/><path d="M-30,-28 L-28,-16 L-36,-24 L-24,-24 L-32,-16 Z"/>
      <circle cx="0" cy="-26" r="10"/><path d="M0,-34 L2,-22 L-6,-30 L6,-30 L-2,-22 Z"/>
      <circle cx="30" cy="-20" r="10"/><path d="M30,-28 L32,-16 L24,-24 L36,-24 L28,-16 Z"/>
      <circle cx="60" cy="-10" r="10"/><path d="M60,-18 L62,-6 L54,-14 L66,-14 L58,-6 Z"/>
      <circle cx="-45" cy="10" r="10"/><path d="M-45,2 L-43,14 L-51,6 L-39,6 L-47,14 Z"/>
      <circle cx="-15" cy="4" r="10"/><path d="M-15,-4 L-13,8 L-21,0 L-9,0 L-17,8 Z"/>
      <circle cx="15" cy="4" r="10"/><path d="M15,-4 L17,8 L9,0 L21,0 L13,8 Z"/>
      <circle cx="45" cy="10" r="10"/><path d="M45,2 L47,14 L39,6 L51,6 L43,14 Z"/>
    </g>
  </g>

  <title>Tarot Front - Nine of Pentacles</title>
</svg>


