<svg xmlns="http://www.w3.org/2000/svg" viewBox="0 0 400 640">
  <defs>
    <linearGradient id="paper" x1="0" y1="0" x2="0" y2="1">
      <stop offset="0%" stop-color="#ffffff"/>
      <stop offset="100%" stop-color="#f6f6f8"/>
    </linearGradient>
    <linearGradient id="border" x1="0" y1="0" x2="1" y2="1">
      <stop offset="0%" stop-color="#e7c77b"/>
      <stop offset="100%" stop-color="#b8954d"/>
    </linearGradient>
  </defs>

  <rect width="100%" height="100%" rx="24" ry="24" fill="url(#paper)"/>
  <rect x="10" y="10" width="380" height="620" rx="20" ry="20" fill="none" stroke="url(#border)" stroke-width="2.5"/>
  <rect x="18" y="18" width="364" height="604" rx="18" ry="18" fill="none" stroke="url(#border)" stroke-opacity="0.45" stroke-width="1.5"/>

  <!-- The Hierophant motif: pillars, triple cross staff, keys, book, blessing gesture -->
  <g transform="translate(200,320)" stroke="#dabb67" stroke-width="1.6" fill="none" stroke-linecap="round" stroke-linejoin="round" opacity="0.95">
    <!-- pillars -->
    <path d="M-88,-130 v220"/>
    <path d="M88,-130 v220"/>

    <!-- head and headdress/tiara -->
    <circle cx="0" cy="-96" r="10" fill="#dabb67"/>
    <path d="M-18,-106 h36 l-6,12 h-24 z"/>

    <!-- blessing hand (right) -->
    <path d="M24,-70 c8,6 12,14 10,22"/>
    <path d="M34,-48 v14"/>

    <!-- triple cross staff (left) -->
    <path d="M-46,-120 v120"/>
    <path d="M-62,-100 h32"/>
    <path d="M-62,-80 h32"/>
    <path d="M-62,-60 h32"/>

    <!-- robe/torso -->
    <path d="M-24,-84 L24,-84 L12,-30 L-12,-30 Z"/>

    <!-- keys (crossed) -->
    <g opacity="0.92">
      <path d="M-10,20 l-26,26"/>
      <path d="M10,20 l26,26"/>
      <rect x="-40" y="44" width="10" height="6" rx="1"/>
      <rect x="30" y="44" width="10" height="6" rx="1"/>
    </g>

    <!-- book/tablet -->
    <rect x="-20" y="-24" width="40" height="18" rx="2"/>

    <!-- steps/base -->
    <g opacity="0.85">
      <path d="M-100,84 h200"/>
      <path d="M-110,96 h220"/>
      <path d="M-120,108 h240"/>
    </g>
  </g>

  <title>Tarot Front - The Hierophant</title>
</svg>


