<svg xmlns="http://www.w3.org/2000/svg" viewBox="0 0 400 640">
  <defs>
    <linearGradient id="paper" x1="0" y1="0" x2="0" y2="1">
      <stop offset="0%" stop-color="#ffffff"/>
      <stop offset="100%" stop-color="#f6f6f8"/>
    </linearGradient>
    <linearGradient id="border" x1="0" y1="0" x2="1" y2="1">
      <stop offset="0%" stop-color="#e7c77b"/>
      <stop offset="100%" stop-color="#b8954d"/>
    </linearGradient>
  </defs>

  <rect width="100%" height="100%" rx="24" ry="24" fill="url(#paper)"/>
  <rect x="10" y="10" width="380" height="620" rx="20" ry="20" fill="none" stroke="url(#border)" stroke-width="2.5"/>
  <rect x="18" y="18" width="364" height="604" rx="18" ry="18" fill="none" stroke="url(#border)" stroke-opacity="0.45" stroke-width="1.5"/>

  <!-- Five of Cups motif: three spilled, two upright across a river -->
  <g transform="translate(200,320)" stroke="#dabb67" stroke-width="1.6" fill="none" stroke-linecap="round" stroke-linejoin="round" opacity="0.95">
    <!-- spilled cups -->
    <g transform="translate(-40,20) rotate(-90)">
      <path d="M-12,-10 h24 c0,10 -10,18 -12,18 c-2,0 -12,-8 -12,-18z"/>
      <path d="M0,6 v10"/>
      <path d="M-10,20 h20"/>
    </g>
    <g transform="translate(-8,28) rotate(110)">
      <path d="M-12,-10 h24 c0,10 -10,18 -12,18 c-2,0 -12,-8 -12,-18z"/>
      <path d="M0,6 v10"/>
      <path d="M-10,20 h20"/>
    </g>
    <g transform="translate(16,18) rotate(-70)">
      <path d="M-12,-10 h24 c0,10 -10,18 -12,18 c-2,0 -12,-8 -12,-18z"/>
      <path d="M0,6 v10"/>
      <path d="M-10,20 h20"/>
    </g>

    <!-- river -->
    <path d="M-120,60 c60,-20 120,-20 240,0"/>

    <!-- two upright across -->
    <g transform="translate(60,-18)">
      <path d="M-12,-12 h24 c0,12 -10,22 -12,22 c-2,0 -12,-10 -12,-22z"/>
      <path d="M0,10 v12"/>
      <path d="M-10,26 h20"/>
    </g>
    <g transform="translate(92,-18)">
      <path d="M-12,-12 h24 c0,12 -10,22 -12,22 c-2,0 -12,-10 -12,-22z"/>
      <path d="M0,10 v12"/>
      <path d="M-10,26 h20"/>
    </g>

    <!-- ground line -->
    <path d="M-120,110 H120" opacity="0.7"/>
  </g>

  <title>Tarot Front - Five of Cups</title>
</svg>


