<svg xmlns="http://www.w3.org/2000/svg" viewBox="0 0 400 640">
  <defs>
    <linearGradient id="paper" x1="0" y1="0" x2="0" y2="1">
      <stop offset="0%" stop-color="#ffffff"/>
      <stop offset="100%" stop-color="#f6f6f8"/>
    </linearGradient>
    <linearGradient id="border" x1="0" y1="0" x2="1" y2="1">
      <stop offset="0%" stop-color="#e7c77b"/>
      <stop offset="100%" stop-color="#b8954d"/>
    </linearGradient>
  </defs>

  <rect width="100%" height="100%" rx="24" ry="24" fill="url(#paper)"/>
  <rect x="10" y="10" width="380" height="620" rx="20" ry="20" fill="none" stroke="url(#border)" stroke-width="2.5"/>
  <rect x="18" y="18" width="364" height="604" rx="18" ry="18" fill="none" stroke="url(#border)" stroke-opacity="0.45" stroke-width="1.5"/>

  <!-- Nine of Swords motif: nine horizontal swords, anxious figure silhouette -->
  <g transform="translate(200,320)" stroke="#dabb67" stroke-width="1.5" fill="none" stroke-linecap="round" stroke-linejoin="round" opacity="0.95">
    <!-- swords -->
    <g opacity="0.9">
      <path d="M-120,-90 h240"/>
      <path d="M-120,-78 h240"/>
      <path d="M-120,-66 h240"/>
      <path d="M-120,-54 h240"/>
      <path d="M-120,-42 h240"/>
      <path d="M-120,-30 h240"/>
      <path d="M-120,-18 h240"/>
      <path d="M-120,-6 h240"/>
      <path d="M-120,6 h240"/>
    </g>
    <!-- figure -->
    <circle cx="-72" cy="16" r="8"/>
    <path d="M-84,24 q12,8 24,0"/>
  </g>

  <title>Tarot Front - Nine of Swords</title>
</svg>


