<svg xmlns="http://www.w3.org/2000/svg" viewBox="0 0 400 640">
  <defs>
    <linearGradient id="paper" x1="0" y1="0" x2="0" y2="1">
      <stop offset="0%" stop-color="#ffffff"/>
      <stop offset="100%" stop-color="#f6f6f8"/>
    </linearGradient>
    <linearGradient id="border" x1="0" y1="0" x2="1" y2="1">
      <stop offset="0%" stop-color="#e7c77b"/>
      <stop offset="100%" stop-color="#b8954d"/>
    </linearGradient>
  </defs>

  <rect width="100%" height="100%" rx="24" ry="24" fill="url(#paper)"/>
  <rect x="10" y="10" width="380" height="620" rx="20" ry="20" fill="none" stroke="url(#border)" stroke-width="2.5"/>
  <rect x="18" y="18" width="364" height="604" rx="18" ry="18" fill="none" stroke="url(#border)" stroke-opacity="0.45" stroke-width="1.5"/>

  <!-- The Moon motif: crescent moon, two towers, path with dog and wolf -->
  <g transform="translate(200,320)" stroke="#dabb67" stroke-width="1.6" fill="none" stroke-linecap="round" stroke-linejoin="round" opacity="0.95">
    <!-- crescent moon -->
    <circle cx="0" cy="-150" r="18" stroke="#dabb67"/>
    <path d="M-8,-164 a18,18 0 1,0 0,28 a10,18 0 1,1 0,-28" fill="#dabb67" stroke="none"/>

    <!-- towers -->
    <rect x="-92" y="-120" width="28" height="120" rx="2"/>
    <rect x="64" y="-120" width="28" height="120" rx="2"/>

    <!-- dog and wolf -->
    <circle cx="-48" cy="-20" r="6"/>
    <circle cx="48" cy="-20" r="6"/>

    <!-- path -->
    <path d="M0,-20 v50 c0,20 -30,30 -60,40"/>
    <path d="M0,30 c0,20 30,30 60,40"/>

    <!-- water/crayfish hint -->
    <path d="M-120,110 c40,-10 60,-10 100,0 c40,10 60,10 100,0" opacity="0.8"/>
  </g>

  <title>Tarot Front - The Moon</title>
</svg>


