<svg xmlns="http://www.w3.org/2000/svg" viewBox="0 0 400 640">
  <defs>
    <linearGradient id="paper" x1="0" y1="0" x2="0" y2="1">
      <stop offset="0%" stop-color="#ffffff"/>
      <stop offset="100%" stop-color="#f6f6f8"/>
    </linearGradient>
    <linearGradient id="border" x1="0" y1="0" x2="1" y2="1">
      <stop offset="0%" stop-color="#e7c77b"/>
      <stop offset="100%" stop-color="#b8954d"/>
    </linearGradient>
  </defs>

  <rect width="100%" height="100%" rx="24" ry="24" fill="url(#paper)"/>
  <rect x="10" y="10" width="380" height="620" rx="20" ry="20" fill="none" stroke="url(#border)" stroke-width="2.5"/>
  <rect x="18" y="18" width="364" height="604" rx="18" ry="18" fill="none" stroke="url(#border)" stroke-opacity="0.45" stroke-width="1.5"/>

  <!-- Wheel of Fortune motif: wheel with spokes, books/letters, clouds -->
  <g transform="translate(200,320)" stroke="#dabb67" stroke-width="1.6" fill="none" stroke-linecap="round" stroke-linejoin="round" opacity="0.95">
    <!-- wheel -->
    <circle cx="0" cy="0" r="68"/>
    <circle cx="0" cy="0" r="6"/>
    <path d="M0,-68 v136 M-68,0 h136 M-48,-48 l96,96 M48,-48 l-96,96"/>

    <!-- clouds -->
    <g opacity="0.8">
      <path d="M-100,-110 c12,-10 26,-10 38,0 c10,-8 22,-8 32,0"/>
      <path d="M30,-120 c10,-8 20,-8 30,0 c8,-6 16,-6 24,0"/>
    </g>

    <!-- book/letters (learning) -->
    <rect x="-84" y="-10" width="18" height="14" rx="2"/>
    <rect x="66" y="-10" width="18" height="14" rx="2"/>
  </g>

  <title>Tarot Front - Wheel of Fortune</title>
</svg>


