<svg xmlns="http://www.w3.org/2000/svg" viewBox="0 0 400 640">
  <defs>
    <linearGradient id="paper" x1="0" y1="0" x2="0" y2="1">
      <stop offset="0%" stop-color="#ffffff"/>
      <stop offset="100%" stop-color="#f6f6f8"/>
    </linearGradient>
    <linearGradient id="border" x1="0" y1="0" x2="1" y2="1">
      <stop offset="0%" stop-color="#e7c77b"/>
      <stop offset="100%" stop-color="#b8954d"/>
    </linearGradient>
  </defs>

  <rect width="100%" height="100%" rx="24" ry="24" fill="url(#paper)"/>
  <rect x="10" y="10" width="380" height="620" rx="20" ry="20" fill="none" stroke="url(#border)" stroke-width="2.5"/>
  <rect x="18" y="18" width="364" height="604" rx="18" ry="18" fill="none" stroke="url(#border)" stroke-opacity="0.45" stroke-width="1.5"/>

  <!-- The Star motif: large star, smaller stars, water bearer, pool -->
  <g transform="translate(200,320)" stroke="#dabb67" stroke-width="1.6" fill="none" stroke-linecap="round" stroke-linejoin="round" opacity="0.95">
    <!-- large 8-pointed star -->
    <path d="M0,-156 v28 M0,-100 v-28 M-28,-128 h28 M28,-128 h-28 M-20,-148 l14,20 M20,-148 l-14,20 M-20,-108 l14,-20 M20,-108 l-14,-20"/>

    <!-- small stars -->
    <g opacity="0.9">
      <circle cx="-60" cy="-150" r="2"/>
      <circle cx="60" cy="-150" r="2"/>
      <circle cx="-90" cy="-130" r="2"/>
      <circle cx="90" cy="-130" r="2"/>
    </g>

    <!-- water bearer (simplified) -->
    <circle cx="-22" cy="-78" r="8" fill="#dabb67"/>
    <path d="M-22,-70 v36"/>
    <path d="M-38,-56 c10,6 20,6 32,0"/>
    <path d="M-44,-30 c16,10 36,10 52,0"/>

    <!-- pool -->
    <path d="M-120,110 c40,-10 60,-10 100,0 c40,10 60,10 100,0"/>
  </g>

  <title>Tarot Front - The Star</title>
</svg>


