<svg xmlns="http://www.w3.org/2000/svg" viewBox="0 0 400 640">
  <defs>
    <linearGradient id="paper" x1="0" y1="0" x2="0" y2="1">
      <stop offset="0%" stop-color="#ffffff"/>
      <stop offset="100%" stop-color="#f6f6f8"/>
    </linearGradient>
    <linearGradient id="border" x1="0" y1="0" x2="1" y2="1">
      <stop offset="0%" stop-color="#e7c77b"/>
      <stop offset="100%" stop-color="#b8954d"/>
    </linearGradient>
  </defs>

  <rect width="100%" height="100%" rx="24" ry="24" fill="url(#paper)"/>
  <rect x="10" y="10" width="380" height="620" rx="20" ry="20" fill="none" stroke="url(#border)" stroke-width="2.5"/>
  <rect x="18" y="18" width="364" height="604" rx="18" ry="18" fill="none" stroke="url(#border)" stroke-opacity="0.45" stroke-width="1.5"/>

  <!-- Ace of Swords motif: sword, crown, laurel -->
  <g transform="translate(200,320)" stroke-linecap="round" fill="none">
    <!-- laurel wreath -->
    <g stroke="#dabb67" stroke-width="1.6" opacity="0.85">
      <path d="M-68,12 C-52,-18,-28,-34,0,-36"/>
      <path d="M68,12 C52,-18,28,-34,0,-36"/>
      <path d="M-64,22 C-40,0,-18,-12,0,-14"/>
      <path d="M64,22 C40,0,18,-12,0,-14"/>
    </g>
    
    <!-- sword blade -->
    <g stroke="#6f5bd7" stroke-width="2">
      <path d="M0,-128 L0,36"/>
      <path d="M-9,36 L9,36"/>
    </g>
    
    <!-- crown -->
    <g stroke="#dabb67" stroke-width="1.6" transform="rotate(-8)">
      <path d="M-28,-128 h56 l-8,16 l-20,-12 l-20,12 z"/>
      <path d="M-4,-112 l8,8"/>
    </g>
    
    <!-- clarity rays -->
    <g stroke="#dabb67" stroke-width="1.2" opacity="0.7">
      <line x1="-40" y1="-80" x2="-20" y2="-60"/>
      <line x1="40" y1="-80" x2="20" y2="-60"/>
      <line x1="-40" y1="80" x2="-20" y2="60"/>
      <line x1="40" y1="80" x2="20" y2="60"/>
    </g>
  </g>

  <title>Tarot Front - Ace of Swords</title>
</svg>

