<svg xmlns="http://www.w3.org/2000/svg" viewBox="0 0 400 640">
  <defs>
    <linearGradient id="paper" x1="0" y1="0" x2="0" y2="1">
      <stop offset="0%" stop-color="#ffffff"/>
      <stop offset="100%" stop-color="#f6f6f8"/>
    </linearGradient>
    <linearGradient id="border" x1="0" y1="0" x2="1" y2="1">
      <stop offset="0%" stop-color="#e7c77b"/>
      <stop offset="100%" stop-color="#b8954d"/>
    </linearGradient>
  </defs>

  <rect width="100%" height="100%" rx="24" ry="24" fill="url(#paper)"/>
  <rect x="10" y="10" width="380" height="620" rx="20" ry="20" fill="none" stroke="url(#border)" stroke-width="2.5"/>
  <rect x="18" y="18" width="364" height="604" rx="18" ry="18" fill="none" stroke="url(#border)" stroke-opacity="0.45" stroke-width="1.5"/>

  <!-- Five of Pentacles motif: stained-glass window with five coins, snow below -->
  <g transform="translate(200,320)" stroke="#dabb67" stroke-width="1.8" fill="none" stroke-linecap="round" stroke-linejoin="round" opacity="0.95">
    <!-- window frame -->
    <rect x="-60" y="-110" width="120" height="180" rx="10"/>
    <!-- coins pattern -->
    <circle cx="-30" cy="-70" r="12"/>
    <path d="M-30,-82 L-26,-58 L-42,-70 L-18,-70 L-34,-58 Z"/>
    <circle cx="30" cy="-70" r="12"/>
    <path d="M30,-82 L34,-58 L18,-70 L42,-70 L26,-58 Z"/>
    <circle cx="0" cy="-40" r="12"/>
    <path d="M0,-52 L4,-28 L-12,-40 L12,-40 L-4,-28 Z"/>
    <circle cx="-20" cy="-10" r="12"/>
    <path d="M-20,-22 L-16,2 L-32,-10 L-8,-10 L-24,2 Z"/>
    <circle cx="20" cy="-10" r="12"/>
    <path d="M20,-22 L24,2 L8,-10 L32,-10 L16,2 Z"/>
    <!-- snow/ground -->
    <path d="M-120,110 c40,-10 60,-10 100,0 c40,10 60,10 100,0"/>
  </g>

  <title>Tarot Front - Five of Pentacles</title>
</svg>


