<svg xmlns="http://www.w3.org/2000/svg" viewBox="0 0 400 640">
  <defs>
    <linearGradient id="paper" x1="0" y1="0" x2="0" y2="1">
      <stop offset="0%" stop-color="#ffffff"/>
      <stop offset="100%" stop-color="#f6f6f8"/>
    </linearGradient>
    <linearGradient id="border" x1="0" y1="0" x2="1" y2="1">
      <stop offset="0%" stop-color="#e7c77b"/>
      <stop offset="100%" stop-color="#b8954d"/>
    </linearGradient>
  </defs>

  <rect width="100%" height="100%" rx="24" ry="24" fill="url(#paper)"/>
  <rect x="10" y="10" width="380" height="620" rx="20" ry="20" fill="none" stroke="url(#border)" stroke-width="2.5"/>
  <rect x="18" y="18" width="364" height="604" rx="18" ry="18" fill="none" stroke="url(#border)" stroke-opacity="0.45" stroke-width="1.5"/>

  <!-- Ace of Wands motif: sprouting wand with leaves and spark -->
  <g transform="translate(200,320)" stroke="#dabb67" stroke-width="1.8" fill="none" stroke-linecap="round" stroke-linejoin="round" opacity="0.95">
    <!-- spark -->
    <circle cx="0" cy="-120" r="8"/>
    <path d="M0,-140 v12 M0,-108 v12 M-12,-120 h-12 M12,-120 h12 M-9,-132 l-8,-8 M9,-132 l8,-8 M-9,-108 l-8,8 M9,-108 l8,8"/>
    <!-- wand -->
    <path d="M0,-90 v180"/>
    <!-- leaves -->
    <path d="M0,-40 c-14,-8 -20,-18 -20,-30"/>
    <path d="M0,-10 c14,-8 20,-18 20,-30"/>
  </g>

  <title>Tarot Front - Ace of Wands</title>
</svg>


