<svg xmlns="http://www.w3.org/2000/svg" viewBox="0 0 400 640">
  <defs>
    <linearGradient id="paper" x1="0" y1="0" x2="0" y2="1">
      <stop offset="0%" stop-color="#ffffff"/>
      <stop offset="100%" stop-color="#f6f6f8"/>
    </linearGradient>
    <linearGradient id="border" x1="0" y1="0" x2="1" y2="1">
      <stop offset="0%" stop-color="#e7c77b"/>
      <stop offset="100%" stop-color="#b8954d"/>
    </linearGradient>
  </defs>

  <rect width="100%" height="100%" rx="24" ry="24" fill="url(#paper)"/>
  <rect x="10" y="10" width="380" height="620" rx="20" ry="20" fill="none" stroke="url(#border)" stroke-width="2.5"/>
  <rect x="18" y="18" width="364" height="604" rx="18" ry="18" fill="none" stroke="url(#border)" stroke-opacity="0.45" stroke-width="1.5"/>

  <!-- The Devil motif: chains, torch, horns, broken shackles -->
  <g transform="translate(200,320)" stroke="#dabb67" stroke-width="1.6" fill="none" stroke-linecap="round" stroke-linejoin="round" opacity="0.95">
    <!-- stylized horned mask -->
    <path d="M-36,-118 C-46,-146,-14,-150,-10,-126 M36,-118 C46,-146,14,-150,10,-126"/>
    <path d="M-34,-96 h68 c0,22 -18,34 -34,34 c-16,0 -34,-12 -34,-34z"/>
    <circle cx="-14" cy="-90" r="3"/>
    <circle cx="14" cy="-90" r="3"/>

    <!-- central flame/torch -->
    <path d="M0,-50 c-8,-10 -2,-24 8,-28 c4,8 2,14 -2,20 c8,-2 16,2 18,10 c-10,4 -16,8 -24,-2z"/>
    <path d="M0,-36 v80"/>

    <!-- chains -->
    <g opacity="0.9">
      <path d="M-90,-10 c20,-20 40,-20 60,0"/>
      <path d="M30,-10 c20,-20 40,-20 60,0"/>
      <path d="M-60,10 l20,20 m-10,-30 l20,20 m-10,-30 l20,20"/>
      <path d="M60,10 l-20,20 m10,-30 l-20,20 m10,-30 l-20,20"/>
    </g>

    <!-- broken shackles at base -->
    <g opacity="0.95">
      <path d="M-40,68 a16,16 0 0,1 32,0"/>
      <path d="M-8,68 l8,12"/>
      <path d="M8,68 a16,16 0 0,1 32,0"/>
      <path d="M40,68 l-8,12"/>
    </g>

    <!-- ground line -->
    <path d="M-120,110 H120" opacity="0.7"/>
  </g>

  <title>Tarot Front - The Devil</title>
</svg>


