<svg xmlns="http://www.w3.org/2000/svg" viewBox="0 0 400 640">
  <defs>
    <linearGradient id="paper" x1="0" y1="0" x2="0" y2="1">
      <stop offset="0%" stop-color="#ffffff"/>
      <stop offset="100%" stop-color="#f6f6f8"/>
    </linearGradient>
    <linearGradient id="border" x1="0" y1="0" x2="1" y2="1">
      <stop offset="0%" stop-color="#e7c77b"/>
      <stop offset="100%" stop-color="#b8954d"/>
    </linearGradient>
  </defs>

  <rect width="100%" height="100%" rx="24" ry="24" fill="url(#paper)"/>
  <rect x="10" y="10" width="380" height="620" rx="20" ry="20" fill="none" stroke="url(#border)" stroke-width="2.5"/>
  <rect x="18" y="18" width="364" height="604" rx="18" ry="18" fill="none" stroke="url(#border)" stroke-opacity="0.45" stroke-width="1.5"/>

  <!-- The Magician motif: infinity halo, tools, radiant burst -->
  <g transform="translate(200,320)" stroke="#dabb67" stroke-width="1.5" fill="none" stroke-linecap="round" stroke-linejoin="round">
    <!-- infinity halo -->
    <path d="M-42,0 C-42,-22, 0,-22, 0,0 C0,22, 42,22, 42,0 C42,-22, 0,-22, 0,0 C0,22, -42,22, -42,0"/>
    
    <!-- radiant burst -->
    <g opacity="0.85">
      <line x1="0" y1="-70" x2="0" y2="-48"/>
      <line x1="0" y1="70" x2="0" y2="48"/>
      <line x1="-70" y1="0" x2="-48" y2="0"/>
      <line x1="70" y1="0" x2="48" y2="0"/>
      <line x1="50" y1="-50" x2="34" y2="-34"/>
      <line x1="50" y1="50" x2="34" y2="34"/>
      <line x1="-50" y1="50" x2="-34" y2="34"/>
      <line x1="-50" y1="-50" x2="-34" y2="-34"/>
    </g>
    
    <!-- tools aligned around -->
    <path d="M-58,12 h18 v10 h-18 z"/> <!-- cup -->
    <path d="M12,-20 v22"/> <!-- sword -->
    <circle cx="38" cy="4" r="6"/> <!-- pentacle -->
    <path d="M-16,-8 l12,-12"/> <!-- wand -->
    
    <!-- center dot -->
    <circle cx="0" cy="0" r="4" fill="#dabb67"/>
  </g>

  <title>Tarot Front - The Magician</title>
</svg>

