<svg xmlns="http://www.w3.org/2000/svg" viewBox="0 0 400 640">
  <defs>
    <linearGradient id="paper" x1="0" y1="0" x2="0" y2="1">
      <stop offset="0%" stop-color="#ffffff"/>
      <stop offset="100%" stop-color="#f6f6f8"/>
    </linearGradient>
    <linearGradient id="border" x1="0" y1="0" x2="1" y2="1">
      <stop offset="0%" stop-color="#e7c77b"/>
      <stop offset="100%" stop-color="#b8954d"/>
    </linearGradient>
  </defs>

  <rect width="100%" height="100%" rx="24" ry="24" fill="url(#paper)"/>
  <rect x="10" y="10" width="380" height="620" rx="20" ry="20" fill="none" stroke="url(#border)" stroke-width="2.5"/>
  <rect x="18" y="18" width="364" height="604" rx="18" ry="18" fill="none" stroke="url(#border)" stroke-opacity="0.45" stroke-width="1.5"/>

  <!-- Nine of Cups motif: arch of cups (satisfaction) -->
  <g transform="translate(200,320)" stroke="#dabb67" stroke-width="1.6" fill="none" stroke-linecap="round" stroke-linejoin="round" opacity="0.95">
    <!-- arch path for positions -->
    <path d="M-100,-20 C-40,-80, 40,-80, 100,-20" opacity="0.4"/>
    
    <!-- place 9 cups along arch roughly -->
    <g transform="translate(-88,-12)"><path d="M-8,-8 h16 c0,8 -6,14 -8,14 c-2,0 -8,-6 -8,-14z"/><path d="M0,4 v8"/><path d="M-6,16 h12"/></g>
    <g transform="translate(-66,-26)"><path d="M-8,-8 h16 c0,8 -6,14 -8,14 c-2,0 -8,-6 -8,-14z"/><path d="M0,4 v8"/><path d="M-6,16 h12"/></g>
    <g transform="translate(-44,-36)"><path d="M-8,-8 h16 c0,8 -6,14 -8,14 c-2,0 -8,-6 -8,-14z"/><path d="M0,4 v8"/><path d="M-6,16 h12"/></g>
    <g transform="translate(-22,-42)"><path d="M-8,-8 h16 c0,8 -6,14 -8,14 c-2,0 -8,-6 -8,-14z"/><path d="M0,4 v8"/><path d="M-6,16 h12"/></g>
    <g transform="translate(0,-44)"><path d="M-8,-8 h16 c0,8 -6,14 -8,14 c-2,0 -8,-6 -8,-14z"/><path d="M0,4 v8"/><path d="M-6,16 h12"/></g>
    <g transform="translate(22,-42)"><path d="M-8,-8 h16 c0,8 -6,14 -8,14 c-2,0 -8,-6 -8,-14z"/><path d="M0,4 v8"/><path d="M-6,16 h12"/></g>
    <g transform="translate(44,-36)"><path d="M-8,-8 h16 c0,8 -6,14 -8,14 c-2,0 -8,-6 -8,-14z"/><path d="M0,4 v8"/><path d="M-6,16 h12"/></g>
    <g transform="translate(66,-26)"><path d="M-8,-8 h16 c0,8 -6,14 -8,14 c-2,0 -8,-6 -8,-14z"/><path d="M0,4 v8"/><path d="M-6,16 h12"/></g>
    <g transform="translate(88,-12)"><path d="M-8,-8 h16 c0,8 -6,14 -8,14 c-2,0 -8,-6 -8,-14z"/><path d="M0,4 v8"/><path d="M-6,16 h12"/></g>

    <path d="M-120,110 H120" opacity="0.7"/>
  </g>

  <title>Tarot Front - Nine of Cups</title>
</svg>


