<svg xmlns="http://www.w3.org/2000/svg" viewBox="0 0 400 640">
  <defs>
    <linearGradient id="paper" x1="0" y1="0" x2="0" y2="1">
      <stop offset="0%" stop-color="#ffffff"/>
      <stop offset="100%" stop-color="#f6f6f8"/>
    </linearGradient>
    <linearGradient id="border" x1="0" y1="0" x2="1" y2="1">
      <stop offset="0%" stop-color="#e7c77b"/>
      <stop offset="100%" stop-color="#b8954d"/>
    </linearGradient>
  </defs>

  <rect width="100%" height="100%" rx="24" ry="24" fill="url(#paper)"/>
  <rect x="10" y="10" width="380" height="620" rx="20" ry="20" fill="none" stroke="url(#border)" stroke-width="2.5"/>
  <rect x="18" y="18" width="364" height="604" rx="18" ry="18" fill="none" stroke="url(#border)" stroke-opacity="0.45" stroke-width="1.5"/>

  <!-- Six of Wands motif: laurel staff raised, five supporters -->
  <g transform="translate(200,320)" stroke="#dabb67" stroke-width="1.8" fill="none" stroke-linecap="round" stroke-linejoin="round" opacity="0.95">
    <!-- laurel staff -->
    <path d="M0,-110 v220"/>
    <path d="M0,-80 c-18,12 -24,24 -20,36 M0,-80 c18,12 24,24 20,36"/>
    <!-- supporters -->
    <path d="M-80,-60 v160"/>
    <path d="M-40,-70 v160"/>
    <path d="M40,-70 v160"/>
    <path d="M80,-60 v160"/>
    <path d="M-10,20 v120"/>
  </g>

  <title>Tarot Front - Six of Wands</title>
</svg>


