<svg xmlns="http://www.w3.org/2000/svg" viewBox="0 0 400 640">
  <defs>
    <linearGradient id="paper" x1="0" y1="0" x2="0" y2="1">
      <stop offset="0%" stop-color="#ffffff"/>
      <stop offset="100%" stop-color="#f6f6f8"/>
    </linearGradient>
    <linearGradient id="border" x1="0" y1="0" x2="1" y2="1">
      <stop offset="0%" stop-color="#e7c77b"/>
      <stop offset="100%" stop-color="#b8954d"/>
    </linearGradient>
  </defs>

  <rect width="100%" height="100%" rx="24" ry="24" fill="url(#paper)"/>
  <rect x="10" y="10" width="380" height="620" rx="20" ry="20" fill="none" stroke="url(#border)" stroke-width="2.5"/>
  <rect x="18" y="18" width="364" height="604" rx="18" ry="18" fill="none" stroke="url(#border)" stroke-opacity="0.45" stroke-width="1.5"/>

  <!-- Ace of Wands motif: wand, leaves, growth -->
  <g transform="translate(200,320)" stroke="#dabb67" stroke-width="1.4" fill="none" stroke-linecap="round">
    <!-- wand/staff -->
    <path d="M0,-120 L0,40" stroke-width="2"/>
    <path d="M0,-120 L-8,-128 L8,-128 Z" fill="#dabb67"/>
    
    <!-- leaves -->
    <g opacity="0.9">
      <path d="M0,-100 C-15,-90, -15,-70, 0,-60"/>
      <path d="M0,-80 C15,-70, 15,-50, 0,-40"/>
      <path d="M0,-60 C-12,-50, -12,-30, 0,-20"/>
      <path d="M0,-40 C12,-30, 12,-10, 0,0"/>
    </g>
    
    <!-- growth sprouts -->
    <g opacity="0.8">
      <path d="M-20,-60 C-15,-50, -10,-40, -5,-30"/>
      <path d="M20,-60 C15,-50, 10,-40, 5,-30"/>
      <path d="M-15,-40 C-10,-30, -5,-20, 0,-10"/>
      <path d="M15,-40 C10,-30, 5,-20, 0,-10"/>
    </g>
    
    <!-- energy/sparkles -->
    <g opacity="0.7">
      <circle cx="-30" cy="-80" r="2"/>
      <circle cx="30" cy="-80" r="2"/>
      <circle cx="-25" cy="-50" r="1.5"/>
      <circle cx="25" cy="-50" r="1.5"/>
      <circle cx="0" cy="-110" r="2.5"/>
    </g>
  </g>

  <title>Tarot Front - Ace of Wands</title>
</svg>

