<svg xmlns="http://www.w3.org/2000/svg" viewBox="0 0 400 640">
  <defs>
    <linearGradient id="paper" x1="0" y1="0" x2="0" y2="1">
      <stop offset="0%" stop-color="#ffffff"/>
      <stop offset="100%" stop-color="#f6f6f8"/>
    </linearGradient>
    <linearGradient id="border" x1="0" y1="0" x2="1" y2="1">
      <stop offset="0%" stop-color="#e7c77b"/>
      <stop offset="100%" stop-color="#b8954d"/>
    </linearGradient>
  </defs>

  <rect width="100%" height="100%" rx="24" ry="24" fill="url(#paper)"/>
  <rect x="10" y="10" width="380" height="620" rx="20" ry="20" fill="none" stroke="url(#border)" stroke-width="2.5"/>
  <rect x="18" y="18" width="364" height="604" rx="18" ry="18" fill="none" stroke="url(#border)" stroke-opacity="0.45" stroke-width="1.5"/>

  <!-- Ace of Cups motif: chalice overflowing, dove, lotus, waves -->
  <g transform="translate(200,320)" stroke="#dabb67" stroke-width="1.6" fill="none" stroke-linecap="round" stroke-linejoin="round" opacity="0.95">
    <!-- dove descending -->
    <path d="M0,-156 c10,10 18,20 18,30 c-12,0 -20,-6 -30,-18 c-2,10 -4,18 -12,26 c10,-2 18,-4 26,-8"/>

    <!-- chalice bowl -->
    <path d="M-40,-44 h80 c0,24 -22,44 -40,44 c-18,0 -40,-20 -40,-44z"/>
    <!-- stem and base -->
    <path d="M0,0 v30"/>
    <path d="M-18,44 h36"/>

    <!-- overflowing streams -->
    <path d="M-24,-44 c-6,20 -6,32 0,48"/>
    <path d="M24,-44 c6,20 6,32 0,48"/>
    <path d="M0,-44 c0,18 -2,34 -8,48"/>

    <!-- lotus -->
    <g transform="translate(0,84)">
      <path d="M0,-8 c-12,0 -22,10 -22,22 c12,0 22,-6 22,-22z"/>
      <path d="M0,-8 c12,0 22,10 22,22 c-12,0 -22,-6 -22,-22z"/>
      <path d="M0,-8 c0,16 -8,22 -16,26 c16,0 16,-10 16,-26z"/>
      <path d="M0,-8 c0,16 8,22 16,26 c-16,0 -16,-10 -16,-26z"/>
    </g>

    <!-- waves/base -->
    <g opacity="0.85">
      <path d="M-120,118 c40,-10 60,-10 100,0 c40,10 60,10 100,0"/>
      <path d="M-100,108 c30,-8 50,-8 80,0 c30,8 50,8 80,0" opacity="0.7"/>
    </g>
  </g>

  <title>Tarot Front - Ace of Cups</title>
  
</svg>


