<svg xmlns="http://www.w3.org/2000/svg" viewBox="0 0 400 640">
  <defs>
    <linearGradient id="paper" x1="0" y1="0" x2="0" y2="1">
      <stop offset="0%" stop-color="#ffffff"/>
      <stop offset="100%" stop-color="#f6f6f8"/>
    </linearGradient>
    <linearGradient id="border" x1="0" y1="0" x2="1" y2="1">
      <stop offset="0%" stop-color="#e7c77b"/>
      <stop offset="100%" stop-color="#b8954d"/>
    </linearGradient>
  </defs>

  <rect width="100%" height="100%" rx="24" ry="24" fill="url(#paper)"/>
  <rect x="10" y="10" width="380" height="620" rx="20" ry="20" fill="none" stroke="url(#border)" stroke-width="2.5"/>
  <rect x="18" y="18" width="364" height="604" rx="18" ry="18" fill="none" stroke="url(#border)" stroke-opacity="0.45" stroke-width="1.5"/>

  <!-- The Empress motif: wheat, pomegranate, Venus symbol, throne in nature -->
  <g transform="translate(200,320)" stroke="#dabb67" stroke-width="1.6" fill="none" stroke-linecap="round" stroke-linejoin="round" opacity="0.95">
    <!-- crown of stars -->
    <g opacity="0.9">
      <circle cx="-28" cy="-146" r="2"/>
      <circle cx="-14" cy="-152" r="2"/>
      <circle cx="0" cy="-154" r="2"/>
      <circle cx="14" cy="-152" r="2"/>
      <circle cx="28" cy="-146" r="2"/>
    </g>
    <!-- Venus symbol -->
    <circle cx="0" cy="-110" r="12"/>
    <path d="M0,-98 v18 M-8,-86 h16"/>

    <!-- throne silhouette -->
    <rect x="-64" y="-96" width="128" height="120" rx="12"/>
    <rect x="-72" y="24" width="144" height="22" rx="6"/>

    <!-- wheat stalks -->
    <g opacity="0.9">
      <path d="M-92,86 c10,-30 18,-44 24,-60"/>
      <path d="M-74,54 l8,8 M-80,66 l8,8 M-86,78 l8,8"/>
      <path d="M92,86 c-10,-30 -18,-44 -24,-60"/>
      <path d="M74,54 l-8,8 M80,66 l-8,8 M86,78 l-8,8"/>
    </g>

    <!-- pomegranates pattern on robe -->
    <g opacity="0.7">
      <circle cx="-24" cy="-28" r="6"/>
      <circle cx="0" cy="-16" r="6"/>
      <circle cx="24" cy="-28" r="6"/>
    </g>

    <!-- river line / nature base -->
    <path d="M-120,110 c40,-10 60,-10 100,0 c40,10 60,10 100,0" opacity="0.8"/>
  </g>

  <title>Tarot Front - The Empress</title>
</svg>


