<svg xmlns="http://www.w3.org/2000/svg" viewBox="0 0 400 640">
  <defs>
    <linearGradient id="paper" x1="0" y1="0" x2="0" y2="1">
      <stop offset="0%" stop-color="#ffffff"/>
      <stop offset="100%" stop-color="#f6f6f8"/>
    </linearGradient>
    <linearGradient id="border" x1="0" y1="0" x2="1" y2="1">
      <stop offset="0%" stop-color="#e7c77b"/>
      <stop offset="100%" stop-color="#b8954d"/>
    </linearGradient>
  </defs>

  <rect width="100%" height="100%" rx="24" ry="24" fill="url(#paper)"/>
  <rect x="10" y="10" width="380" height="620" rx="20" ry="20" fill="none" stroke="url(#border)" stroke-width="2.5"/>
  <rect x="18" y="18" width="364" height="604" rx="18" ry="18" fill="none" stroke="url(#border)" stroke-opacity="0.45" stroke-width="1.5"/>

  <!-- Four of Cups motif: seated figure under tree, three cups before, one offered -->
  <g transform="translate(200,320)" stroke="#dabb67" stroke-width="1.6" fill="none" stroke-linecap="round" stroke-linejoin="round" opacity="0.95">
    <!-- tree -->
    <path d="M-90,-40 v120"/>
    <path d="M-120,-60 c20,-16 40,-16 60,0 c-8,18 -28,26 -40,26"/>

    <!-- seated figure (simplified, looking away) -->
    <circle cx="-20" cy="-12" r="6"/>
    <path d="M-20,-6 v24"/>
    <path d="M-34,10 c10,6 18,6 28,0"/>

    <!-- three cups on ground -->
    <g transform="translate(-28,52)">
      <path d="M-36,-12 h18 c0,10 -10,18 -18,18 c8,0 18,-8 18,-18 h-18z"/>
      <path d="M-27,6 v10"/>
      <path d="M-36,20 h18"/>
    </g>
    <g transform="translate(0,52)">
      <path d="M-9,-12 h18 c0,10 -10,18 -18,18 c8,0 18,-8 18,-18 h-18z"/>
      <path d="M0,6 v10"/>
      <path d="M-9,20 h18"/>
    </g>
    <g transform="translate(28,52)">
      <path d="M-9,-12 h18 c0,10 -10,18 -18,18 c8,0 18,-8 18,-18 h-18z"/>
      <path d="M0,6 v10"/>
      <path d="M-9,20 h18"/>
    </g>

    <!-- offered cup from cloud/hand -->
    <path d="M80,-24 c-16,-8 -30,-8 -44,0"/>
    <path d="M52,-24 c6,8 10,14 10,22"/>
    <g transform="translate(52,-4)">
      <path d="M-9,-10 h18 c0,10 -10,18 -18,18 c8,0 18,-8 18,-18 h-18z"/>
      <path d="M0,8 v10"/>
      <path d="M-9,22 h18"/>
    </g>

    <!-- ground line -->
    <path d="M-120,110 H120" opacity="0.7"/>
  </g>

  <title>Tarot Front - Four of Cups</title>
</svg>


