<svg xmlns="http://www.w3.org/2000/svg" viewBox="0 0 400 640">
  <defs>
    <linearGradient id="paper" x1="0" y1="0" x2="0" y2="1">
      <stop offset="0%" stop-color="#ffffff"/>
      <stop offset="100%" stop-color="#f6f6f8"/>
    </linearGradient>
    <linearGradient id="border" x1="0" y1="0" x2="1" y2="1">
      <stop offset="0%" stop-color="#e7c77b"/>
      <stop offset="100%" stop-color="#b8954d"/>
    </linearGradient>
  </defs>

  <rect width="100%" height="100%" rx="24" ry="24" fill="url(#paper)"/>
  <rect x="10" y="10" width="380" height="620" rx="20" ry="20" fill="none" stroke="url(#border)" stroke-width="2.5"/>
  <rect x="18" y="18" width="364" height="604" rx="18" ry="18" fill="none" stroke="url(#border)" stroke-opacity="0.45" stroke-width="1.5"/>

  <!-- The Lovers motif: angel/halo, heart, two figures, joining path -->
  <g transform="translate(200,320)" stroke="#dabb67" stroke-width="1.6" fill="none" stroke-linecap="round" stroke-linejoin="round" opacity="0.95">
    <!-- halo/angel above -->
    <circle cx="0" cy="-140" r="16"/>
    <g opacity="0.8">
      <line x1="0" y1="-166" x2="0" y2="-156"/>
      <line x1="0" y1="-124" x2="0" y2="-134"/>
      <line x1="-16" y1="-140" x2="-26" y2="-140"/>
      <line x1="16" y1="-140" x2="26" y2="-140"/>
    </g>

    <!-- heart -->
    <path d="M-12,-110 c0,-8 6,-14 12,-14 c6,0 12,6 12,14 c0,14 -12,18 -12,18 s-12,-4 -12,-18z"/>

    <!-- left figure -->
    <circle cx="-42" cy="-70" r="10" fill="#dabb67"/>
    <path d="M-42,-60 v44"/>
    <path d="M-58,-34 c10,8 22,8 32,0"/>

    <!-- right figure -->
    <circle cx="42" cy="-70" r="10" fill="#dabb67"/>
    <path d="M42,-60 v44"/>
    <path d="M26,-34 c10,8 22,8 32,0"/>

    <!-- joined hands / connection -->
    <path d="M-26,-20 c12,10 38,10 52,0"/>

    <!-- intertwined path at base -->
    <g opacity="0.85">
      <path d="M-120,110 c40,-12 60,-12 100,0 c40,12 60,12 100,0"/>
      <path d="M-80,110 c24,-8 40,-8 64,0 c24,8 40,8 64,0" opacity="0.7"/>
    </g>
  </g>

  <title>Tarot Front - The Lovers</title>
</svg>


