<svg xmlns="http://www.w3.org/2000/svg" viewBox="0 0 400 640">
  <defs>
    <linearGradient id="paper" x1="0" y1="0" x2="0" y2="1">
      <stop offset="0%" stop-color="#ffffff"/>
      <stop offset="100%" stop-color="#f6f6f8"/>
    </linearGradient>
    <linearGradient id="border" x1="0" y1="0" x2="1" y2="1">
      <stop offset="0%" stop-color="#e7c77b"/>
      <stop offset="100%" stop-color="#b8954d"/>
    </linearGradient>
  </defs>

  <rect width="100%" height="100%" rx="24" ry="24" fill="url(#paper)"/>
  <rect x="10" y="10" width="380" height="620" rx="20" ry="20" fill="none" stroke="url(#border)" stroke-width="2.5"/>
  <rect x="18" y="18" width="364" height="604" rx="18" ry="18" fill="none" stroke="url(#border)" stroke-opacity="0.45" stroke-width="1.5"/>

  <!-- The Fool motif: carefree figure, sun, dog, cliff -->
  <g transform="translate(200,320)" stroke="#dabb67" stroke-width="1.4" fill="none" stroke-linecap="round">
    <!-- sun -->
    <circle cx="0" cy="-120" r="20" fill="#dabb67" opacity="0.8"/>
    <g opacity="0.7">
      <line x1="0" y1="-150" x2="0" y2="-140"/>
      <line x1="0" y1="-100" x2="0" y2="-110"/>
      <line x1="-20" y1="-120" x2="-30" y2="-120"/>
      <line x1="20" y1="-120" x2="30" y2="-120"/>
      <line x1="-14" y1="-134" x2="-21" y2="-141"/>
      <line x1="14" y1="-134" x2="21" y2="-141"/>
      <line x1="-14" y1="-106" x2="-21" y2="-99"/>
      <line x1="14" y1="-106" x2="21" y2="-99"/>
    </g>
    
    <!-- figure (simplified) -->
    <circle cx="0" cy="-40" r="12" fill="#dabb67"/>
    <path d="M0,-28 v40"/>
    <path d="M-8,-20 h16"/>
    <path d="M-6,12 h12"/>
    
    <!-- dog -->
    <circle cx="20" cy="-20" r="6" fill="#dabb67"/>
    <path d="M26,-20 h8"/>
    
    <!-- cliff/ground -->
    <path d="M-80,80 L80,80" stroke-width="2"/>
    <path d="M-60,80 L-40,60 M-20,80 L0,60 M20,80 L40,60 M60,80 L80,60" opacity="0.6"/>
  </g>

  <title>Tarot Front - The Fool</title>
</svg>

