<svg xmlns="http://www.w3.org/2000/svg" viewBox="0 0 400 640">
  <defs>
    <linearGradient id="paper" x1="0" y1="0" x2="0" y2="1">
      <stop offset="0%" stop-color="#ffffff"/>
      <stop offset="100%" stop-color="#f6f6f8"/>
    </linearGradient>
    <linearGradient id="border" x1="0" y1="0" x2="1" y2="1">
      <stop offset="0%" stop-color="#e7c77b"/>
      <stop offset="100%" stop-color="#b8954d"/>
    </linearGradient>
  </defs>

  <rect width="100%" height="100%" rx="24" ry="24" fill="url(#paper)"/>
  <rect x="10" y="10" width="380" height="620" rx="20" ry="20" fill="none" stroke="url(#border)" stroke-width="2.5"/>
  <rect x="18" y="18" width="364" height="604" rx="18" ry="18" fill="none" stroke="url(#border)" stroke-opacity="0.45" stroke-width="1.5"/>

  <!-- Ten of Cups motif: rainbow arc over cups/family hint -->
  <g transform="translate(200,320)" stroke="#dabb67" stroke-width="1.6" fill="none" stroke-linecap="round" stroke-linejoin="round" opacity="0.95">
    <!-- rainbow arc (stylized lines) -->
    <path d="M-100,-30 C-40,-90, 40,-90, 100,-30"/>
    <path d="M-90,-20 C-36,-76, 36,-76, 90,-20" opacity="0.8"/>
    <path d="M-80,-10 C-32,-62, 32,-62, 80,-10" opacity="0.6"/>

    <!-- cups (five and five) -->
    <g transform="translate(-60,24)"><path d="M-10,-10 h20 c0,10 -8,18 -10,18 c-2,0 -10,-8 -10,-18z"/><path d="M0,6 v10"/><path d="M-8,20 h16"/></g>
    <g transform="translate(-36,24)"><path d="M-10,-10 h20 c0,10 -8,18 -10,18 c-2,0 -10,-8 -10,-18z"/><path d="M0,6 v10"/><path d="M-8,20 h16"/></g>
    <g transform="translate(-12,24)"><path d="M-10,-10 h20 c0,10 -8,18 -10,18 c-2,0 -10,-8 -10,-18z"/><path d="M0,6 v10"/><path d="M-8,20 h16"/></g>
    <g transform="translate(12,24)"><path d="M-10,-10 h20 c0,10 -8,18 -10,18 c-2,0 -10,-8 -10,-18z"/><path d="M0,6 v10"/><path d="M-8,20 h16"/></g>
    <g transform="translate(36,24)"><path d="M-10,-10 h20 c0,10 -8,18 -10,18 c-2,0 -10,-8 -10,-18z"/><path d="M0,6 v10"/><path d="M-8,20 h16"/></g>
    <g transform="translate(-48,48)"><path d="M-10,-10 h20 c0,10 -8,18 -10,18 c-2,0 -10,-8 -10,-18z"/><path d="M0,6 v10"/><path d="M-8,20 h16"/></g>
    <g transform="translate(-24,48)"><path d="M-10,-10 h20 c0,10 -8,18 -10,18 c-2,0 -10,-8 -10,-18z"/><path d="M0,6 v10"/><path d="M-8,20 h16"/></g>
    <g transform="translate(0,48)"><path d="M-10,-10 h20 c0,10 -8,18 -10,18 c-2,0 -10,-8 -10,-18z"/><path d="M0,6 v10"/><path d="M-8,20 h16"/></g>
    <g transform="translate(24,48)"><path d="M-10,-10 h20 c0,10 -8,18 -10,18 c-2,0 -10,-8 -10,-18z"/><path d="M0,6 v10"/><path d="M-8,20 h16"/></g>
    <g transform="translate(48,48)"><path d="M-10,-10 h20 c0,10 -8,18 -10,18 c-2,0 -10,-8 -10,-18z"/><path d="M0,6 v10"/><path d="M-8,20 h16"/></g>

    <!-- ground line -->
    <path d="M-120,110 H120" opacity="0.7"/>
  </g>

  <title>Tarot Front - Ten of Cups</title>
</svg>


