<svg xmlns="http://www.w3.org/2000/svg" viewBox="0 0 400 640">
  <defs>
    <linearGradient id="paper" x1="0" y1="0" x2="0" y2="1">
      <stop offset="0%" stop-color="#ffffff"/>
      <stop offset="100%" stop-color="#f6f6f8"/>
    </linearGradient>
    <linearGradient id="border" x1="0" y1="0" x2="1" y2="1">
      <stop offset="0%" stop-color="#e7c77b"/>
      <stop offset="100%" stop-color="#b8954d"/>
    </linearGradient>
  </defs>

  <rect width="100%" height="100%" rx="24" ry="24" fill="url(#paper)"/>
  <rect x="10" y="10" width="380" height="620" rx="20" ry="20" fill="none" stroke="url(#border)" stroke-width="2.5"/>
  <rect x="18" y="18" width="364" height="604" rx="18" ry="18" fill="none" stroke="url(#border)" stroke-opacity="0.45" stroke-width="1.5"/>

  <!-- The Hermit motif: lantern, staff, hooded figure, mountain path -->
  <g transform="translate(200,320)" stroke="#dabb67" stroke-width="1.6" fill="none" stroke-linecap="round" stroke-linejoin="round" opacity="0.95">
    <!-- hooded head -->
    <path d="M-6,-100 q6,-10 12,0 q-6,10 -12,0z"/>
    <circle cx="0" cy="-92" r="6"/>
    <!-- staff -->
    <path d="M-22,-120 v140"/>
    <!-- lantern -->
    <rect x="24" y="-96" width="18" height="22" rx="3"/>
    <path d="M33,-96 v-10"/>
    <circle cx="33" cy="-74" r="4"/>
    <!-- cloak -->
    <path d="M-18,-90 L18,-90 L12,-40 L-12,-40 Z"/>
    <!-- mountain path -->
    <g opacity="0.85">
      <path d="M-120,90 L-90,60 L-40,80 L0,60 L40,90 L80,70 L120,100"/>
      <path d="M-120,110 H120"/>
    </g>
  </g>

  <title>Tarot Front - The Hermit</title>
</svg>


