<svg xmlns="http://www.w3.org/2000/svg" viewBox="0 0 400 640">
  <defs>
    <linearGradient id="paper" x1="0" y1="0" x2="0" y2="1">
      <stop offset="0%" stop-color="#ffffff"/>
      <stop offset="100%" stop-color="#f6f6f8"/>
    </linearGradient>
    <linearGradient id="border" x1="0" y1="0" x2="1" y2="1">
      <stop offset="0%" stop-color="#e7c77b"/>
      <stop offset="100%" stop-color="#b8954d"/>
    </linearGradient>
  </defs>

  <rect width="100%" height="100%" rx="24" ry="24" fill="url(#paper)"/>
  <rect x="10" y="10" width="380" height="620" rx="20" ry="20" fill="none" stroke="url(#border)" stroke-width="2.5"/>
  <rect x="18" y="18" width="364" height="604" rx="18" ry="18" fill="none" stroke="url(#border)" stroke-opacity="0.45" stroke-width="1.5"/>

  <!-- Ace of Cups motif: chalice, water, dove, heart -->
  <g transform="translate(200,320)" stroke="#dabb67" stroke-width="1.4" fill="none" stroke-linecap="round">
    <!-- chalice -->
    <path d="M-20,-80 L-20,20"/>
    <path d="M-20,20 L-40,40 L40,40 L20,20 Z"/>
    <path d="M-20,-80 L-30,-90 L30,-90 L20,-80"/>
    
    <!-- water/overflow -->
    <path d="M-40,40 C-20,20, 20,20, 40,40" fill="none" stroke="#8b7cf3" stroke-width="2"/>
    <path d="M-35,35 C-15,15, 15,15, 35,35" fill="none" stroke="#8b7cf3" stroke-width="1.5" opacity="0.7"/>
    
    <!-- dove -->
    <g transform="translate(0,-60)">
      <path d="M-8,-4 C-4,-8, 4,-8, 8,-4" stroke="#dabb67"/>
      <circle cx="0" cy="-8" r="2" fill="#dabb67"/>
    </g>
    
    <!-- heart -->
    <g transform="translate(0,0)">
      <path d="M0,8 C-6,2, -6,-6, 0,-12 C6,-6, 6,2, 0,8" fill="#dabb67" opacity="0.8"/>
    </g>
    
    <!-- decorative elements -->
    <g opacity="0.6">
      <circle cx="-30" cy="-40" r="2"/>
      <circle cx="30" cy="-40" r="2"/>
      <circle cx="0" cy="-100" r="3"/>
    </g>
  </g>

  <title>Tarot Front - Ace of Cups</title>
</svg>

