<svg xmlns="http://www.w3.org/2000/svg" viewBox="0 0 400 640">
  <defs>
    <linearGradient id="paper" x1="0" y1="0" x2="0" y2="1">
      <stop offset="0%" stop-color="#ffffff"/>
      <stop offset="100%" stop-color="#f6f6f8"/>
    </linearGradient>
    <linearGradient id="border" x1="0" y1="0" x2="1" y2="1">
      <stop offset="0%" stop-color="#e7c77b"/>
      <stop offset="100%" stop-color="#b8954d"/>
    </linearGradient>
  </defs>

  <rect width="100%" height="100%" rx="24" ry="24" fill="url(#paper)"/>
  <rect x="10" y="10" width="380" height="620" rx="20" ry="20" fill="none" stroke="url(#border)" stroke-width="2.5"/>
  <rect x="18" y="18" width="364" height="604" rx="18" ry="18" fill="none" stroke="url(#border)" stroke-opacity="0.45" stroke-width="1.5"/>

  <!-- High Priestess motif: pillars, veil, crescent moon -->
  <g transform="translate(200,320)" stroke="#8b7cf3" stroke-width="1.6" fill="none" opacity="0.85">
    <!-- pillars -->
    <path d="M-78,-120 v240"/>
    <path d="M78,-120 v240"/>
    
    <!-- veil -->
    <path d="M-78,-40 C-26,-80, 26,-80, 78,-40"/>
    <path d="M-78,40 C-26,80, 26,80, 78,40"/>
    
    <!-- moon -->
    <circle cx="0" cy="0" r="34" stroke="#dabb67"/>
    <path d="M-10,-24 a24,24 0 1,0 0,48 a16,24 0 1,1 0,-48" fill="#dabb67" stroke="none"/>
    
    <!-- mystical symbols -->
    <g opacity="0.7">
      <circle cx="-40" cy="-60" r="3"/>
      <circle cx="40" cy="-60" r="3"/>
      <circle cx="-40" cy="60" r="3"/>
      <circle cx="40" cy="60" r="3"/>
    </g>
  </g>

  <title>Tarot Front - The High Priestess</title>
</svg>

