<svg xmlns="http://www.w3.org/2000/svg" viewBox="0 0 400 640">
  <defs>
    <linearGradient id="paper" x1="0" y1="0" x2="0" y2="1">
      <stop offset="0%" stop-color="#ffffff"/>
      <stop offset="100%" stop-color="#f6f6f8"/>
    </linearGradient>
    <linearGradient id="border" x1="0" y1="0" x2="1" y2="1">
      <stop offset="0%" stop-color="#e7c77b"/>
      <stop offset="100%" stop-color="#b8954d"/>
    </linearGradient>
  </defs>

  <rect width="100%" height="100%" rx="24" ry="24" fill="url(#paper)"/>
  <rect x="10" y="10" width="380" height="620" rx="20" ry="20" fill="none" stroke="url(#border)" stroke-width="2.5"/>
  <rect x="18" y="18" width="364" height="604" rx="18" ry="18" fill="none" stroke="url(#border)" stroke-opacity="0.45" stroke-width="1.5"/>

  <!-- Three of Pentacles motif: three coins in arch (collaboration) -->
  <g transform="translate(200,320)" stroke="#dabb67" stroke-width="1.8" fill="none" stroke-linecap="round" stroke-linejoin="round" opacity="0.95">
    <path d="M-80,20 C-80,-40, 80,-40, 80,20"/>
    <circle cx="-40" cy="0" r="16"/>
    <path d="M-40,-18 L-34,8 L-56,-6 L-28,-6 L-46,8 Z"/>
    <circle cx="0" cy="-16" r="16"/>
    <path d="M0,-34 L6,-8 L-16,-22 L16,-22 L-6,-8 Z"/>
    <circle cx="40" cy="0" r="16"/>
    <path d="M40,-18 L46,8 L24,-6 L52,-6 L34,8 Z"/>
  </g>

  <title>Tarot Front - Three of Pentacles</title>
</svg>


