<svg xmlns="http://www.w3.org/2000/svg" viewBox="0 0 400 640">
  <defs>
    <linearGradient id="paper" x1="0" y1="0" x2="0" y2="1">
      <stop offset="0%" stop-color="#ffffff"/>
      <stop offset="100%" stop-color="#f6f6f8"/>
    </linearGradient>
    <linearGradient id="border" x1="0" y1="0" x2="1" y2="1">
      <stop offset="0%" stop-color="#e7c77b"/>
      <stop offset="100%" stop-color="#b8954d"/>
    </linearGradient>
  </defs>

  <rect width="100%" height="100%" rx="24" ry="24" fill="url(#paper)"/>
  <rect x="10" y="10" width="380" height="620" rx="20" ry="20" fill="none" stroke="url(#border)" stroke-width="2.5"/>
  <rect x="18" y="18" width="364" height="604" rx="18" ry="18" fill="none" stroke="url(#border)" stroke-opacity="0.45" stroke-width="1.5"/>

  <!-- Six of Pentacles motif: scales above, six coins below (balance in giving) -->
  <g transform="translate(200,320)" stroke="#dabb67" stroke-width="1.8" fill="none" stroke-linecap="round" stroke-linejoin="round" opacity="0.95">
    <!-- scales -->
    <path d="M0,-110 v36 M-40,-74 h80"/>
    <circle cx="-40" cy="-50" r="12"/>
    <path d="M-40,-62 L-36,-38 L-52,-50 L-28,-50 L-44,-38 Z"/>
    <circle cx="40" cy="-50" r="12"/>
    <path d="M40,-62 L44,-38 L28,-50 L52,-50 L36,-38 Z"/>
    <!-- six coins -->
    <g opacity="0.95">
      <circle cx="-40" cy="10" r="10"/>
      <path d="M-40,2 L-38,14 L-46,6 L-34,6 L-42,14 Z"/>
      <circle cx="0" cy="10" r="10"/>
      <path d="M0,2 L2,14 L-6,6 L6,6 L-2,14 Z"/>
      <circle cx="40" cy="10" r="10"/>
      <path d="M40,2 L42,14 L34,6 L46,6 L38,14 Z"/>
      <circle cx="-40" cy="40" r="10"/>
      <path d="M-40,32 L-38,44 L-46,36 L-34,36 L-42,44 Z"/>
      <circle cx="0" cy="40" r="10"/>
      <path d="M0,32 L2,44 L-6,36 L6,36 L-2,44 Z"/>
      <circle cx="40" cy="40" r="10"/>
      <path d="M40,32 L42,44 L34,36 L46,36 L38,44 Z"/>
    </g>
  </g>

  <title>Tarot Front - Six of Pentacles</title>
</svg>


