<svg xmlns="http://www.w3.org/2000/svg" viewBox="0 0 400 640">
  <defs>
    <linearGradient id="paper" x1="0" y1="0" x2="0" y2="1">
      <stop offset="0%" stop-color="#ffffff"/>
      <stop offset="100%" stop-color="#f6f6f8"/>
    </linearGradient>
    <linearGradient id="border" x1="0" y1="0" x2="1" y2="1">
      <stop offset="0%" stop-color="#e7c77b"/>
      <stop offset="100%" stop-color="#b8954d"/>
    </linearGradient>
  </defs>

  <rect width="100%" height="100%" rx="24" ry="24" fill="url(#paper)"/>
  <rect x="10" y="10" width="380" height="620" rx="20" ry="20" fill="none" stroke="url(#border)" stroke-width="2.5"/>
  <rect x="18" y="18" width="364" height="604" rx="18" ry="18" fill="none" stroke="url(#border)" stroke-opacity="0.45" stroke-width="1.5"/>

  <!-- Eight of Cups motif: stacked cups left, path to mountains under moon -->
  <g transform="translate(200,320)" stroke="#dabb67" stroke-width="1.6" fill="none" stroke-linecap="round" stroke-linejoin="round" opacity="0.95">
    <!-- moon -->
    <circle cx="60" cy="-140" r="12"/>
    <path d="M54,-146 a12,12 0 1,0 0,20 a8,12 0 1,1 0,-20" fill="#dabb67" stroke="none"/>

    <!-- eight cups (3-3-2 stack) -->
    <g transform="translate(-60,28)">
      <!-- bottom row 3 -->
      <g transform="translate(-24,24)"><path d="M-10,-10 h20 c0,10 -8,18 -10,18 c-2,0 -10,-8 -10,-18z"/><path d="M0,6 v10"/><path d="M-8,20 h16"/></g>
      <g transform="translate(0,24)"><path d="M-10,-10 h20 c0,10 -8,18 -10,18 c-2,0 -10,-8 -10,-18z"/><path d="M0,6 v10"/><path d="M-8,20 h16"/></g>
      <g transform="translate(24,24)"><path d="M-10,-10 h20 c0,10 -8,18 -10,18 c-2,0 -10,-8 -10,-18z"/><path d="M0,6 v10"/><path d="M-8,20 h16"/></g>
      <!-- middle row 3 -->
      <g transform="translate(-24,0)"><path d="M-10,-10 h20 c0,10 -8,18 -10,18 c-2,0 -10,-8 -10,-18z"/><path d="M0,6 v10"/><path d="M-8,20 h16"/></g>
      <g transform="translate(0,0)"><path d="M-10,-10 h20 c0,10 -8,18 -10,18 c-2,0 -10,-8 -10,-18z"/><path d="M0,6 v10"/><path d="M-8,20 h16"/></g>
      <g transform="translate(24,0)"><path d="M-10,-10 h20 c0,10 -8,18 -10,18 c-2,0 -10,-8 -10,-18z"/><path d="M0,6 v10"/><path d="M-8,20 h16"/></g>
      <!-- top row 2 -->
      <g transform="translate(-12,-22)"><path d="M-10,-10 h20 c0,10 -8,18 -10,18 c-2,0 -10,-8 -10,-18z"/><path d="M0,6 v10"/><path d="M-8,20 h16"/></g>
      <g transform="translate(12,-22)"><path d="M-10,-10 h20 c0,10 -8,18 -10,18 c-2,0 -10,-8 -10,-18z"/><path d="M0,6 v10"/><path d="M-8,20 h16"/></g>
    </g>

    <!-- path to mountains -->
    <path d="M-20,60 C20,40 40,20 70,-10"/>
    <path d="M40,-10 l20,-20 l20,20"/>

    <path d="M-120,110 H120" opacity="0.7"/>
  </g>

  <title>Tarot Front - Eight of Cups</title>
</svg>


