<svg xmlns="http://www.w3.org/2000/svg" viewBox="0 0 400 640">
  <defs>
    <linearGradient id="paper" x1="0" y1="0" x2="0" y2="1">
      <stop offset="0%" stop-color="#ffffff"/>
      <stop offset="100%" stop-color="#f6f6f8"/>
    </linearGradient>
    <linearGradient id="border" x1="0" y1="0" x2="1" y2="1">
      <stop offset="0%" stop-color="#e7c77b"/>
      <stop offset="100%" stop-color="#b8954d"/>
    </linearGradient>
  </defs>

  <rect width="100%" height="100%" rx="24" ry="24" fill="url(#paper)"/>
  <rect x="10" y="10" width="380" height="620" rx="20" ry="20" fill="none" stroke="url(#border)" stroke-width="2.5"/>
  <rect x="18" y="18" width="364" height="604" rx="18" ry="18" fill="none" stroke="url(#border)" stroke-opacity="0.45" stroke-width="1.5"/>

  <!-- Eight of Pentacles motif: stacked coins in workbench grid (craftsmanship) -->
  <g transform="translate(200,320)" stroke="#dabb67" stroke-width="1.8" fill="none" stroke-linecap="round" stroke-linejoin="round" opacity="0.95">
    <!-- 4x2 grid -->
    <g>
      <circle cx="-60" cy="-20" r="10"/><path d="M-60,-28 L-58,-16 L-66,-24 L-54,-24 L-62,-16 Z"/>
      <circle cx="-20" cy="-20" r="10"/><path d="M-20,-28 L-18,-16 L-26,-24 L-14,-24 L-22,-16 Z"/>
      <circle cx="20" cy="-20" r="10"/><path d="M20,-28 L22,-16 L14,-24 L26,-24 L18,-16 Z"/>
      <circle cx="60" cy="-20" r="10"/><path d="M60,-28 L62,-16 L54,-24 L66,-24 L58,-16 Z"/>
      <circle cx="-60" cy="20" r="10"/><path d="M-60,12 L-58,24 L-66,16 L-54,16 L-62,24 Z"/>
      <circle cx="-20" cy="20" r="10"/><path d="M-20,12 L-18,24 L-26,16 L-14,16 L-22,24 Z"/>
      <circle cx="20" cy="20" r="10"/><path d="M20,12 L22,24 L14,16 L26,16 L18,24 Z"/>
      <circle cx="60" cy="20" r="10"/><path d="M60,12 L62,24 L54,16 L66,16 L58,24 Z"/>
    </g>
  </g>

  <title>Tarot Front - Eight of Pentacles</title>
</svg>


