<svg xmlns="http://www.w3.org/2000/svg" viewBox="0 0 400 640">
  <defs>
    <linearGradient id="paper" x1="0" y1="0" x2="0" y2="1">
      <stop offset="0%" stop-color="#ffffff"/>
      <stop offset="100%" stop-color="#f6f6f8"/>
    </linearGradient>
    <linearGradient id="border" x1="0" y1="0" x2="1" y2="1">
      <stop offset="0%" stop-color="#e7c77b"/>
      <stop offset="100%" stop-color="#b8954d"/>
    </linearGradient>
  </defs>

  <rect width="100%" height="100%" rx="24" ry="24" fill="url(#paper)"/>
  <rect x="10" y="10" width="380" height="620" rx="20" ry="20" fill="none" stroke="url(#border)" stroke-width="2.5"/>
  <rect x="18" y="18" width="364" height="604" rx="18" ry="18" fill="none" stroke="url(#border)" stroke-opacity="0.45" stroke-width="1.5"/>

  <!-- Ace of Swords motif: crowned sword, laurel -->
  <g transform="translate(200,320)" stroke="#dabb67" stroke-width="1.8" fill="none" stroke-linecap="round" stroke-linejoin="round" opacity="0.95">
    <!-- crown -->
    <path d="M-22,-120 h44 l-6,12 -8,-8 -8,8 -8,-8 -8,8 z"/>
    <!-- laurel -->
    <path d="M-44,-96 c12,-16 24,-24 44,-26"/>
    <path d="M44,-96 c-12,-16 -24,-24 -44,-26"/>
    <!-- sword -->
    <path d="M0,-110 v160"/>
    <path d="M-14,24 h28"/>
    <path d="M0,-130 v20"/>
  </g>

  <title>Tarot Front - Ace of Swords</title>
</svg>


