<svg xmlns="http://www.w3.org/2000/svg" viewBox="0 0 400 640">
  <defs>
    <linearGradient id="paper" x1="0" y1="0" x2="0" y2="1">
      <stop offset="0%" stop-color="#ffffff"/>
      <stop offset="100%" stop-color="#f6f6f8"/>
    </linearGradient>
    <linearGradient id="border" x1="0" y1="0" x2="1" y2="1">
      <stop offset="0%" stop-color="#e7c77b"/>
      <stop offset="100%" stop-color="#b8954d"/>
    </linearGradient>
  </defs>

  <rect width="100%" height="100%" rx="24" ry="24" fill="url(#paper)"/>
  <rect x="10" y="10" width="380" height="620" rx="20" ry="20" fill="none" stroke="url(#border)" stroke-width="2.5"/>
  <rect x="18" y="18" width="364" height="604" rx="18" ry="18" fill="none" stroke="url(#border)" stroke-opacity="0.45" stroke-width="1.5"/>

  <!-- Two of Pentacles motif: lemniscate with two coins -->
  <g transform="translate(200,320)" stroke="#dabb67" stroke-width="1.8" fill="none" stroke-linecap="round" stroke-linejoin="round" opacity="0.95">
    <path d="M-70,0 C-70,-40, 70,-40, 70,0 C70,40, -70,40, -70,0"/>
    <circle cx="-70" cy="0" r="16"/>
    <path d="M-70,-20 L-64,6 L-86,-8 L-58,-8 L-76,6 Z"/>
    <circle cx="70" cy="0" r="16"/>
    <path d="M70,-20 L76,6 L54,-8 L82,-8 L64,6 Z"/>
  </g>

  <title>Tarot Front - Two of Pentacles</title>
</svg>


