<svg xmlns="http://www.w3.org/2000/svg" viewBox="0 0 400 640">
  <defs>
    <linearGradient id="paper" x1="0" y1="0" x2="0" y2="1">
      <stop offset="0%" stop-color="#ffffff"/>
      <stop offset="100%" stop-color="#f6f6f8"/>
    </linearGradient>
    <linearGradient id="border" x1="0" y1="0" x2="1" y2="1">
      <stop offset="0%" stop-color="#e7c77b"/>
      <stop offset="100%" stop-color="#b8954d"/>
    </linearGradient>
  </defs>

  <rect width="100%" height="100%" rx="24" ry="24" fill="url(#paper)"/>
  <rect x="10" y="10" width="380" height="620" rx="20" ry="20" fill="none" stroke="url(#border)" stroke-width="2.5"/>
  <rect x="18" y="18" width="364" height="604" rx="18" ry="18" fill="none" stroke="url(#border)" stroke-opacity="0.45" stroke-width="1.5"/>

  <!-- The Chariot motif: canopy, wheels, two sphinxes, reins -->
  <g transform="translate(200,320)" stroke="#dabb67" stroke-width="1.6" fill="none" stroke-linecap="round" stroke-linejoin="round" opacity="0.95">
    <!-- canopy -->
    <path d="M-80,-150 h160 l-12,24 h-136 z"/>
    <path d="M-80,-150 v36 M80,-150 v36"/>

    <!-- charioteer torso/head -->
    <circle cx="0" cy="-92" r="10" fill="#dabb67"/>
    <path d="M0,-82 v48"/>
    <path d="M-18,-60 c12,8 24,8 36,0"/>

    <!-- reins -->
    <path d="M-10,-40 c-30,18 -54,24 -74,18"/>
    <path d="M10,-40 c30,18 54,24 74,18"/>

    <!-- wheels -->
    <circle cx="-40" cy="40" r="18"/>
    <circle cx="40" cy="40" r="18"/>
    <path d="M-40,22 v36 M-58,40 h36"/>
    <path d="M40,22 v36 M22,40 h36"/>

    <!-- sphinxes -->
    <path d="M-86,66 c18,-6 30,-6 48,0 c-6,12 -18,18 -24,18 c-6,0 -18,-6 -24,-18z"/>
    <path d="M86,66 c-18,-6 -30,-6 -48,0 c6,12 18,18 24,18 c6,0 18,-6 24,-18z"/>

    <!-- city wall / horizon -->
    <g opacity="0.85">
      <path d="M-120,100 h240"/>
      <path d="M-120,110 h240"/>
    </g>
  </g>

  <title>Tarot Front - The Chariot</title>
</svg>


