<svg xmlns="http://www.w3.org/2000/svg" viewBox="0 0 400 640">
  <defs>
    <linearGradient id="paper" x1="0" y1="0" x2="0" y2="1">
      <stop offset="0%" stop-color="#ffffff"/>
      <stop offset="100%" stop-color="#f6f6f8"/>
    </linearGradient>
    <linearGradient id="border" x1="0" y1="0" x2="1" y2="1">
      <stop offset="0%" stop-color="#e7c77b"/>
      <stop offset="100%" stop-color="#b8954d"/>
    </linearGradient>
  </defs>

  <rect width="100%" height="100%" rx="24" ry="24" fill="url(#paper)"/>
  <rect x="10" y="10" width="380" height="620" rx="20" ry="20" fill="none" stroke="url(#border)" stroke-width="2.5"/>
  <rect x="18" y="18" width="364" height="604" rx="18" ry="18" fill="none" stroke="url(#border)" stroke-opacity="0.45" stroke-width="1.5"/>

  <!-- Seven of Cups motif: cups in clouds (choices/illusions) -->
  <g transform="translate(200,320)" stroke="#dabb67" stroke-width="1.6" fill="none" stroke-linecap="round" stroke-linejoin="round" opacity="0.95">
    <!-- cloud bands -->
    <path d="M-120,-40 c24,-16 48,-16 72,0 c18,-12 36,-12 54,0 c18,-12 36,-12 54,0"/>
    <path d="M-120,20 c24,-16 48,-16 72,0 c18,-12 36,-12 54,0 c18,-12 36,-12 54,0"/>

    <!-- 7 cups scattered -->
    <g transform="translate(-72,-20)"><path d="M-10,-10 h20 c0,10 -8,18 -10,18 c-2,0 -10,-8 -10,-18z"/><path d="M0,6 v10"/><path d="M-8,20 h16"/></g>
    <g transform="translate(-32,-26)"><path d="M-10,-10 h20 c0,10 -8,18 -10,18 c-2,0 -10,-8 -10,-18z"/><path d="M0,6 v10"/><path d="M-8,20 h16"/></g>
    <g transform="translate(8,-18)"><path d="M-10,-10 h20 c0,10 -8,18 -10,18 c-2,0 -10,-8 -10,-18z"/><path d="M0,6 v10"/><path d="M-8,20 h16"/></g>
    <g transform="translate(48,-22)"><path d="M-10,-10 h20 c0,10 -8,18 -10,18 c-2,0 -10,-8 -10,-18z"/><path d="M0,6 v10"/><path d="M-8,20 h16"/></g>
    <g transform="translate(-52,20)"><path d="M-10,-10 h20 c0,10 -8,18 -10,18 c-2,0 -10,-8 -10,-18z"/><path d="M0,6 v10"/><path d="M-8,20 h16"/></g>
    <g transform="translate(-8,18)"><path d="M-10,-10 h20 c0,10 -8,18 -10,18 c-2,0 -10,-8 -10,-18z"/><path d="M0,6 v10"/><path d="M-8,20 h16"/></g>
    <g transform="translate(36,20)"><path d="M-10,-10 h20 c0,10 -8,18 -10,18 c-2,0 -10,-8 -10,-18z"/><path d="M0,6 v10"/><path d="M-8,20 h16"/></g>

    <path d="M-120,110 H120" opacity="0.7"/>
  </g>

  <title>Tarot Front - Seven of Cups</title>
</svg>


