<svg xmlns="http://www.w3.org/2000/svg" viewBox="0 0 400 640">
  <defs>
    <radialGradient id="bg" cx="50%" cy="40%" r="70%">
      <stop offset="0%" stop-color="#4c1d95"/>
      <stop offset="100%" stop-color="#312e81"/>
    </radialGradient>
    <pattern id="stars" width="40" height="40" patternUnits="userSpaceOnUse">
      <circle cx="2" cy="2" r="1.1" fill="rgba(255,255,255,0.35)"/>
      <circle cx="22" cy="10" r="1.1" fill="rgba(255,255,255,0.28)"/>
      <circle cx="30" cy="28" r="1.2" fill="rgba(255,255,255,0.32)"/>
      <circle cx="12" cy="32" r="1.0" fill="rgba(255,255,255,0.25)"/>
    </pattern>
    <linearGradient id="border" x1="0" y1="0" x2="1" y2="1">
      <stop offset="0%" stop-color="#e7c77b" />
      <stop offset="100%" stop-color="#b8954d" />
    </linearGradient>
  </defs>

  <!-- Outer rounded card -->
  <rect width="100%" height="100%" rx="24" ry="24" fill="url(#bg)"/>
  <rect x="10" y="10" width="380" height="620" rx="20" ry="20" fill="none" stroke="url(#border)" stroke-width="2.5"/>
  <rect x="18" y="18" width="364" height="604" rx="18" ry="18" fill="url(#stars)" opacity="0.35"/>
  
  <!-- Centerpiece -->
  <g transform="translate(200,320)" fill="#e7c77b" stroke="#e7c77b" stroke-width="1.2">
  <circle r="60" fill="none" />
  <circle r="6" />
  <line x1="0" y1="-92" x2="0" y2="-60" transform="rotate(0)"/><line x1="0" y1="-92" x2="0" y2="-60" transform="rotate(15)"/><line x1="0" y1="-92" x2="0" y2="-60" transform="rotate(30)"/><line x1="0" y1="-92" x2="0" y2="-60" transform="rotate(45)"/><line x1="0" y1="-92" x2="0" y2="-60" transform="rotate(60)"/><line x1="0" y1="-92" x2="0" y2="-60" transform="rotate(75)"/><line x1="0" y1="-92" x2="0" y2="-60" transform="rotate(90)"/><line x1="0" y1="-92" x2="0" y2="-60" transform="rotate(105)"/><line x1="0" y1="-92" x2="0" y2="-60" transform="rotate(120)"/><line x1="0" y1="-92" x2="0" y2="-60" transform="rotate(135)"/><line x1="0" y1="-92" x2="0" y2="-60" transform="rotate(150)"/><line x1="0" y1="-92" x2="0" y2="-60" transform="rotate(165)"/><line x1="0" y1="-92" x2="0" y2="-60" transform="rotate(180)"/><line x1="0" y1="-92" x2="0" y2="-60" transform="rotate(195)"/><line x1="0" y1="-92" x2="0" y2="-60" transform="rotate(210)"/><line x1="0" y1="-92" x2="0" y2="-60" transform="rotate(225)"/><line x1="0" y1="-92" x2="0" y2="-60" transform="rotate(240)"/><line x1="0" y1="-92" x2="0" y2="-60" transform="rotate(255)"/><line x1="0" y1="-92" x2="0" y2="-60" transform="rotate(270)"/><line x1="0" y1="-92" x2="0" y2="-60" transform="rotate(285)"/><line x1="0" y1="-92" x2="0" y2="-60" transform="rotate(300)"/><line x1="0" y1="-92" x2="0" y2="-60" transform="rotate(315)"/><line x1="0" y1="-92" x2="0" y2="-60" transform="rotate(330)"/><line x1="0" y1="-92" x2="0" y2="-60" transform="rotate(345)"/>
</g>

  <!-- Caption (for reference, hidden in UI) -->
  <title>Tarot Back - Sunburst Deco</title>
</svg>
